<svg width="280" height="80" viewBox="0 0 280 80" fill="none" xmlns="http://www.w3.org/2000/svg">
<path d="M44.0811 13.6998L47.1668 10.6607C53.2263 4.69271 63.0914 4.545 69.1859 10.4786C71.4951 12.732 73.0298 15.6412 73.5742 18.7976C74.1186 21.954 73.6452 25.1991 72.2208 28.077C71.5375 29.4518 71.3074 31.0024 71.5622 32.5122C71.8173 34.0221 72.5446 35.4158 73.6428 36.4987C75.6624 34.5051 77.263 32.1392 78.3538 29.5361C79.4445 26.9329 80.004 24.1436 80 21.3275C79.9956 18.5115 79.4286 15.7238 78.3304 13.1237C77.2321 10.5236 75.6243 8.16214 73.5992 6.17416C65.0772 -2.17174 51.2444 -2.00566 42.7463 6.36369L13.3341 35.3307L10.9162 32.9493C4.75383 26.8801 4.71455 16.9593 10.9856 10.998C13.3068 8.79814 16.2642 7.36209 19.4494 6.88808C22.6347 6.41406 25.8907 6.92544 28.7683 8.35159C30.0817 9.01447 31.5742 9.2516 33.0326 9.02913C34.4911 8.80666 35.8408 8.13596 36.8891 7.11282L36.9641 7.03935C36.9874 7.01653 37.0059 6.98937 37.0186 6.95943C37.0312 6.92954 37.0377 6.89746 37.0377 6.86506C37.0377 6.83267 37.0312 6.80058 37.0186 6.77069C37.0059 6.74079 36.9874 6.71363 36.9641 6.69077C32.9159 2.80392 27.4911 0.620689 21.8376 0.603037C16.1841 0.58539 10.7453 2.73471 6.67224 6.5962C-2.10167 14.9382 -2.07032 28.8101 6.55321 37.3034L35.9567 66.2626L32.8333 69.3388C26.7737 75.3068 16.9083 75.4545 10.8142 69.5209C8.50491 67.2677 6.9703 64.3583 6.42588 61.202C5.8815 58.0456 6.35462 54.8006 7.77885 51.9225C8.46213 50.5477 8.69242 48.9971 8.43757 47.4875C8.18268 45.9775 7.45535 44.5836 6.3572 43.5008C4.33773 45.4945 2.73688 47.8603 1.6461 50.4633C0.555308 53.0667 -0.00403126 55.8557 2.18706e-05 58.672C0.00407502 61.488 0.571441 64.2758 1.66972 66.8757C2.768 69.476 4.37566 71.8374 6.40084 73.8253C14.9224 82.1716 28.7556 82.006 37.2537 73.6362L66.704 44.6305L69.1311 47.0209C75.1907 52.9889 75.3406 62.7049 69.316 68.7069C67.0282 70.9816 64.0742 72.4928 60.8694 73.0293C57.6647 73.5655 54.3699 73.0993 51.4476 71.6964C50.0513 71.0231 48.4761 70.796 46.9426 71.0477C45.4091 71.2989 43.9934 72.016 42.8939 73.0985C44.9183 75.0876 47.3203 76.6644 49.9633 77.7386C52.6066 78.8129 55.4384 79.3639 58.2979 79.36C61.1571 79.3557 63.9877 78.7969 66.6274 77.7152C69.2676 76.6335 71.6653 75.0501 73.6837 73.0555C82.1581 64.6627 81.9894 51.0385 73.4917 42.6692L44.0811 13.6998ZM40.3474 61.9362L17.726 39.6566L39.6887 18.0262L62.3101 40.3057L40.3474 61.9362Z" fill="#2E3641"/>
<path d="M115.832 46.896C115.832 48.56 115.416 49.952 114.584 51.072C113.752 52.192 112.568 53.04 111.032 53.616C109.496 54.192 107.672 54.48 105.56 54.48C103.768 54.48 102.216 54.336 100.904 54.048C99.624 53.76 98.488 53.36 97.496 52.848V49.008C98.52 49.52 99.752 50 101.192 50.448C102.664 50.864 104.152 51.072 105.656 51.072C107.8 51.072 109.352 50.736 110.312 50.064C111.272 49.36 111.752 48.432 111.752 47.28C111.752 46.64 111.576 46.064 111.224 45.552C110.872 45.04 110.232 44.528 109.304 44.016C108.408 43.504 107.112 42.928 105.416 42.288C103.752 41.648 102.328 41.008 101.144 40.368C99.96 39.728 99.048 38.96 98.408 38.064C97.768 37.168 97.448 36.016 97.448 34.608C97.448 32.432 98.328 30.752 100.088 29.568C101.88 28.384 104.216 27.792 107.096 27.792C108.664 27.792 110.12 27.952 111.464 28.272C112.84 28.56 114.12 28.976 115.304 29.52L113.864 32.88C113.16 32.56 112.408 32.288 111.608 32.064C110.84 31.808 110.056 31.616 109.256 31.488C108.456 31.328 107.64 31.248 106.808 31.248C105.08 31.248 103.752 31.536 102.824 32.112C101.928 32.656 101.48 33.408 101.48 34.368C101.48 35.072 101.688 35.68 102.104 36.192C102.52 36.672 103.208 37.152 104.168 37.632C105.16 38.08 106.472 38.624 108.104 39.264C109.736 39.872 111.128 40.496 112.28 41.136C113.432 41.776 114.312 42.56 114.92 43.488C115.528 44.384 115.832 45.52 115.832 46.896ZM134.336 27.792C137.504 27.792 140.048 28.896 141.968 31.104C143.92 33.312 144.896 36.64 144.896 41.088C144.896 44 144.448 46.464 143.552 48.48C142.688 50.464 141.456 51.968 139.856 52.992C138.288 53.984 136.432 54.48 134.288 54.48C132.976 54.48 131.808 54.304 130.784 53.952C129.76 53.6 128.88 53.152 128.144 52.608C127.44 52.032 126.832 51.408 126.32 50.736H126.032C126.096 51.28 126.16 51.968 126.224 52.8C126.288 53.632 126.32 54.352 126.32 54.96V65.52H122.096V28.272H125.552L126.128 31.776H126.32C126.832 31.04 127.44 30.368 128.144 29.76C128.88 29.152 129.744 28.672 130.736 28.32C131.76 27.968 132.96 27.792 134.336 27.792ZM133.568 31.344C131.84 31.344 130.448 31.68 129.392 32.352C128.336 32.992 127.568 33.968 127.088 35.28C126.608 36.592 126.352 38.256 126.32 40.272V41.088C126.32 43.2 126.544 44.992 126.992 46.464C127.44 47.936 128.192 49.056 129.248 49.824C130.336 50.592 131.808 50.976 133.664 50.976C135.232 50.976 136.512 50.544 137.504 49.68C138.528 48.816 139.28 47.648 139.76 46.176C140.272 44.672 140.528 42.96 140.528 41.04C140.528 38.096 139.952 35.744 138.8 33.984C137.68 32.224 135.936 31.344 133.568 31.344ZM161.563 27.792C163.771 27.792 165.659 28.272 167.227 29.232C168.827 30.192 170.043 31.552 170.875 33.312C171.739 35.04 172.171 37.072 172.171 39.408V41.952H154.555C154.619 44.864 155.355 47.088 156.763 48.624C158.203 50.128 160.203 50.88 162.763 50.88C164.395 50.88 165.835 50.736 167.083 50.448C168.363 50.128 169.675 49.68 171.019 49.104V52.8C169.707 53.376 168.411 53.792 167.131 54.048C165.851 54.336 164.331 54.48 162.571 54.48C160.139 54.48 157.979 53.984 156.091 52.992C154.235 52 152.779 50.528 151.723 48.576C150.699 46.592 150.187 44.176 150.187 41.328C150.187 38.512 150.651 36.096 151.579 34.08C152.539 32.064 153.867 30.512 155.563 29.424C157.291 28.336 159.291 27.792 161.563 27.792ZM161.515 31.248C159.499 31.248 157.899 31.904 156.715 33.216C155.563 34.496 154.875 36.288 154.651 38.592H167.755C167.755 37.12 167.531 35.84 167.083 34.752C166.635 33.664 165.947 32.816 165.019 32.208C164.123 31.568 162.955 31.248 161.515 31.248ZM190.721 27.792C191.201 27.792 191.713 27.824 192.257 27.888C192.833 27.92 193.329 27.984 193.745 28.08L193.217 31.968C192.801 31.872 192.337 31.792 191.825 31.728C191.345 31.664 190.881 31.632 190.433 31.632C189.441 31.632 188.497 31.84 187.601 32.256C186.705 32.672 185.905 33.264 185.201 34.032C184.497 34.768 183.937 35.664 183.521 36.72C183.137 37.776 182.945 38.96 182.945 40.272V54H178.721V28.272H182.177L182.657 32.976H182.849C183.393 32.016 184.049 31.152 184.817 30.384C185.585 29.584 186.465 28.96 187.457 28.512C188.449 28.032 189.537 27.792 190.721 27.792ZM219.979 41.088C219.979 43.232 219.691 45.136 219.115 46.8C218.571 48.432 217.771 49.824 216.715 50.976C215.691 52.128 214.427 53.008 212.923 53.616C211.451 54.192 209.803 54.48 207.979 54.48C206.283 54.48 204.715 54.192 203.275 53.616C201.835 53.008 200.587 52.128 199.531 50.976C198.475 49.824 197.643 48.432 197.035 46.8C196.459 45.136 196.171 43.232 196.171 41.088C196.171 38.24 196.651 35.84 197.611 33.888C198.571 31.904 199.947 30.4 201.739 29.376C203.531 28.32 205.659 27.792 208.123 27.792C210.459 27.792 212.507 28.32 214.267 29.376C216.059 30.4 217.451 31.904 218.443 33.888C219.467 35.84 219.979 38.24 219.979 41.088ZM200.539 41.088C200.539 43.104 200.795 44.864 201.307 46.368C201.851 47.84 202.683 48.976 203.803 49.776C204.923 50.576 206.347 50.976 208.075 50.976C209.803 50.976 211.227 50.576 212.347 49.776C213.467 48.976 214.283 47.84 214.795 46.368C215.339 44.864 215.611 43.104 215.611 41.088C215.611 39.04 215.339 37.296 214.795 35.856C214.251 34.416 213.419 33.312 212.299 32.544C211.211 31.744 209.787 31.344 208.027 31.344C205.403 31.344 203.499 32.208 202.315 33.936C201.131 35.664 200.539 38.048 200.539 41.088ZM225.234 39.36C225.234 37.376 225.362 35.424 225.618 33.504C225.906 31.584 226.386 29.776 227.058 28.08C227.73 26.352 228.658 24.832 229.842 23.52C231.026 22.176 232.514 21.136 234.306 20.4C236.13 19.632 238.338 19.248 240.93 19.248C241.602 19.248 242.338 19.28 243.138 19.344C243.97 19.408 244.642 19.52 245.154 19.68V23.28C244.578 23.088 243.922 22.944 243.186 22.848C242.482 22.752 241.762 22.704 241.026 22.704C238.818 22.704 236.978 23.072 235.506 23.808C234.034 24.544 232.866 25.552 232.002 26.832C231.17 28.112 230.562 29.584 230.178 31.248C229.794 32.912 229.554 34.688 229.458 36.576H229.746C230.226 35.808 230.834 35.12 231.57 34.512C232.306 33.904 233.186 33.424 234.21 33.072C235.266 32.72 236.482 32.544 237.858 32.544C239.842 32.544 241.57 32.96 243.042 33.792C244.546 34.592 245.714 35.776 246.546 37.344C247.378 38.88 247.794 40.752 247.794 42.96C247.794 45.328 247.346 47.376 246.45 49.104C245.554 50.832 244.29 52.16 242.658 53.088C241.058 54.016 239.138 54.48 236.898 54.48C235.266 54.48 233.746 54.176 232.338 53.568C230.93 52.96 229.682 52.032 228.594 50.784C227.538 49.536 226.706 47.968 226.098 46.08C225.522 44.16 225.234 41.92 225.234 39.36ZM236.85 50.928C238.866 50.928 240.498 50.288 241.746 49.008C242.994 47.696 243.618 45.68 243.618 42.96C243.618 40.784 243.058 39.056 241.938 37.776C240.85 36.496 239.202 35.856 236.994 35.856C235.49 35.856 234.178 36.176 233.058 36.816C231.938 37.424 231.058 38.208 230.418 39.168C229.81 40.128 229.506 41.12 229.506 42.144C229.506 43.2 229.65 44.24 229.938 45.264C230.258 46.288 230.722 47.232 231.33 48.096C231.97 48.96 232.738 49.648 233.634 50.16C234.562 50.672 235.634 50.928 236.85 50.928ZM267.103 54H262.975V30.048C262.975 29.12 262.975 28.336 262.975 27.696C263.007 27.056 263.039 26.464 263.071 25.92C263.103 25.344 263.135 24.752 263.167 24.144C262.655 24.656 262.191 25.088 261.775 25.44C261.359 25.792 260.831 26.24 260.191 26.784L256.543 29.76L254.335 26.928L263.599 19.728H267.103V54Z" fill="#2E3641"/>
<path d="M114.584 51.072L113.781 50.4757L113.781 50.4757L114.584 51.072ZM111.032 53.616L110.681 52.6797L111.032 53.616ZM100.904 54.048L100.684 55.0236L100.69 55.0247L100.904 54.048ZM97.496 52.848H96.496V53.4572L97.0374 53.7366L97.496 52.848ZM97.496 49.008L97.9432 48.1136L96.496 47.39V49.008H97.496ZM101.192 50.448L100.895 51.4029L100.907 51.4067L100.92 51.4103L101.192 50.448ZM110.312 50.064L110.885 50.8832L110.894 50.8769L110.903 50.8704L110.312 50.064ZM111.224 45.552L112.048 44.9855L112.048 44.9855L111.224 45.552ZM109.304 44.016L108.808 44.8842L108.814 44.888L108.821 44.8916L109.304 44.016ZM105.416 42.288L105.057 43.2214L105.063 43.2236L105.416 42.288ZM98.408 38.064L97.5943 38.6452L97.5943 38.6452L98.408 38.064ZM100.088 29.568L99.5367 28.7336L99.5298 28.7383L100.088 29.568ZM111.464 28.272L111.232 29.2448L111.246 29.248L111.259 29.2508L111.464 28.272ZM115.304 29.52L116.223 29.9139L116.607 29.0182L115.721 28.6113L115.304 29.52ZM113.864 32.88L113.45 33.7904L114.381 34.2133L114.783 33.2739L113.864 32.88ZM111.608 32.064L111.292 33.0127L111.315 33.0204L111.338 33.027L111.608 32.064ZM109.256 31.488L109.06 32.4686L109.079 32.4724L109.098 32.4754L109.256 31.488ZM102.824 32.112L103.343 32.9668L103.351 32.9616L102.824 32.112ZM102.104 36.192L101.328 36.8226L101.338 36.8349L101.348 36.8469L102.104 36.192ZM104.168 37.632L103.721 38.5264L103.738 38.5352L103.756 38.5434L104.168 37.632ZM108.104 39.264L107.739 40.195L107.747 40.1981L107.755 40.2011L108.104 39.264ZM112.28 41.136L111.794 42.0102L111.794 42.0102L112.28 41.136ZM114.92 43.488L114.084 44.036L114.088 44.0428L114.093 44.0495L114.92 43.488ZM114.832 46.896C114.832 48.3878 114.462 49.5594 113.781 50.4757L115.387 51.6683C116.37 50.3446 116.832 48.7322 116.832 46.896H114.832ZM113.781 50.4757C113.083 51.4158 112.069 52.1591 110.681 52.6797L111.383 54.5523C113.067 53.9209 114.421 52.9682 115.387 51.6683L113.781 50.4757ZM110.681 52.6797C109.284 53.2034 107.585 53.48 105.56 53.48V55.48C107.759 55.48 109.708 55.1806 111.383 54.5523L110.681 52.6797ZM105.56 53.48C103.818 53.48 102.341 53.3397 101.118 53.0713L100.69 55.0247C102.091 55.3323 103.718 55.48 105.56 55.48V53.48ZM101.124 53.0724C99.9125 52.7999 98.8591 52.4262 97.9546 51.9594L97.0374 53.7366C98.1169 54.2938 99.3355 54.7201 100.684 55.0236L101.124 53.0724ZM98.496 52.848V49.008H96.496V52.848H98.496ZM97.0488 49.9024C98.1335 50.4448 99.4185 50.9435 100.895 51.4029L101.489 49.4931C100.085 49.0565 98.9065 48.5952 97.9432 48.1136L97.0488 49.9024ZM100.92 51.4103C102.479 51.8509 104.058 52.072 105.656 52.072V50.072C104.246 50.072 102.849 49.8771 101.464 49.4857L100.92 51.4103ZM105.656 52.072C107.858 52.072 109.667 51.7359 110.885 50.8832L109.739 49.2448C109.037 49.7361 107.742 50.072 105.656 50.072V52.072ZM110.903 50.8704C112.11 49.9854 112.752 48.7629 112.752 47.28H110.752C110.752 48.1011 110.434 48.7346 109.721 49.2576L110.903 50.8704ZM112.752 47.28C112.752 46.4442 112.518 45.6694 112.048 44.9855L110.4 46.1185C110.634 46.4586 110.752 46.8358 110.752 47.28H112.752ZM112.048 44.9855C111.566 44.2849 110.768 43.6815 109.787 43.1404L108.821 44.8916C109.696 45.3745 110.178 45.7951 110.4 46.1185L112.048 44.9855ZM109.8 43.1478C108.836 42.5971 107.483 41.9993 105.769 41.3524L105.063 43.2236C106.741 43.8566 107.98 44.4109 108.808 44.8842L109.8 43.1478ZM105.775 41.3547C104.139 40.7254 102.756 40.1026 101.62 39.4883L100.668 41.2477C101.9 41.9134 103.365 42.5706 105.057 43.2213L105.775 41.3547ZM101.62 39.4883C100.54 38.9049 99.7557 38.2303 99.2217 37.4828L97.5943 38.6452C98.3403 39.6897 99.3798 40.5511 100.668 41.2477L101.62 39.4883ZM99.2217 37.4828C98.7328 36.7983 98.448 35.8658 98.448 34.608H96.448C96.448 36.1662 96.8032 37.5377 97.5943 38.6452L99.2217 37.4828ZM98.448 34.608C98.448 32.7545 99.1708 31.3902 100.646 30.3977L99.5298 28.7383C97.4852 30.1138 96.448 32.1095 96.448 34.608H98.448ZM100.639 30.4023C102.221 29.3575 104.347 28.792 107.096 28.792V26.792C104.085 26.792 101.539 27.4105 99.5367 28.7337L100.639 30.4023ZM107.096 28.792C108.596 28.792 109.974 28.9451 111.232 29.2448L111.696 27.2992C110.266 26.9589 108.732 26.792 107.096 26.792V28.792ZM111.259 29.2508C112.568 29.5247 113.776 29.9183 114.887 30.4287L115.721 28.6113C114.464 28.0337 113.112 27.5953 111.669 27.2932L111.259 29.2508ZM114.385 29.1261L112.945 32.4861L114.783 33.2739L116.223 29.9139L114.385 29.1261ZM114.278 31.9696C113.524 31.6269 112.723 31.3378 111.878 31.101L111.338 33.027C112.093 33.2382 112.796 33.4931 113.45 33.7904L114.278 31.9696ZM111.924 31.1153C111.105 30.8421 110.268 30.6371 109.414 30.5006L109.098 32.4754C109.844 32.5949 110.575 32.7739 111.292 33.0127L111.924 31.1153ZM109.452 30.5074C108.586 30.3342 107.705 30.248 106.808 30.248V32.248C107.575 32.248 108.326 32.3217 109.06 32.4686L109.452 30.5074ZM106.808 30.248C104.993 30.248 103.45 30.5465 102.297 31.2624L103.351 32.9616C104.054 32.5255 105.167 32.248 106.808 32.248V30.248ZM102.305 31.2572C101.143 31.9625 100.48 33.0216 100.48 34.368H102.48C102.48 33.7944 102.713 33.3495 103.343 32.9668L102.305 31.2572ZM100.48 34.368C100.48 35.2851 100.757 36.1199 101.328 36.8226L102.88 35.5614C102.619 35.2401 102.48 34.8589 102.48 34.368H100.48ZM101.348 36.8469C101.89 37.4719 102.713 38.0226 103.721 38.5264L104.615 36.7376C103.703 36.2814 103.15 35.8721 102.86 35.5371L101.348 36.8469ZM103.756 38.5434C104.77 39.0012 106.099 39.552 107.739 40.195L108.469 38.333C106.845 37.696 105.55 37.1588 104.58 36.7206L103.756 38.5434ZM107.755 40.2011C109.354 40.7968 110.698 41.4008 111.794 42.0102L112.766 40.2618C111.558 39.5912 110.118 38.9472 108.453 38.3269L107.755 40.2011ZM111.794 42.0102C112.831 42.5862 113.58 43.2668 114.084 44.036L115.756 42.94C115.044 41.8532 114.033 40.9658 112.766 40.2618L111.794 42.0102ZM114.093 44.0495C114.561 44.7401 114.832 45.6661 114.832 46.896H116.832C116.832 45.3739 116.495 44.0279 115.747 42.9265L114.093 44.0495ZM141.968 31.104L141.213 31.7602L141.218 31.7663L141.968 31.104ZM143.552 48.48L142.638 48.0739L142.635 48.0807L143.552 48.48ZM139.856 52.992L140.39 53.8371L140.395 53.8343L139.856 52.992ZM130.784 53.952L130.459 54.8977L130.459 54.8977L130.784 53.952ZM128.144 52.608L127.51 53.382L127.529 53.3975L127.549 53.4122L128.144 52.608ZM126.32 50.736L127.115 50.13L126.815 49.736H126.32V50.736ZM126.032 50.736V49.736H124.907L125.038 50.8528L126.032 50.736ZM126.224 52.8L125.227 52.8767L125.227 52.8767L126.224 52.8ZM126.32 65.52V66.52H127.32V65.52H126.32ZM122.096 65.52H121.096V66.52H122.096V65.52ZM122.096 28.272V27.272H121.096V28.272H122.096ZM125.552 28.272L126.538 28.1098L126.401 27.272H125.552V28.272ZM126.128 31.776L125.141 31.9382L125.279 32.776H126.128V31.776ZM126.32 31.776V32.776H126.842L127.141 32.3471L126.32 31.776ZM128.144 29.76L127.507 28.989L127.498 28.996L127.49 29.0032L128.144 29.76ZM130.736 28.32L130.411 27.3743L130.401 27.3776L130.736 28.32ZM129.392 32.352L129.91 33.2072L129.919 33.2015L129.929 33.1957L129.392 32.352ZM126.32 40.272L125.32 40.2561L125.32 40.2641V40.272H126.32ZM126.992 46.464L126.035 46.7552L126.035 46.7552L126.992 46.464ZM129.248 49.824L128.659 50.6328L128.671 50.641L129.248 49.824ZM137.504 49.68L136.859 48.9157L136.853 48.9208L136.847 48.9259L137.504 49.68ZM139.76 46.176L138.813 45.8537L138.809 45.866L139.76 46.176ZM138.8 33.984L137.956 34.5209L137.963 34.5317L138.8 33.984ZM134.336 28.792C137.241 28.792 139.5 29.7902 141.213 31.7602L142.722 30.4478C140.595 28.0018 137.766 26.792 134.336 26.792V28.792ZM141.218 31.7663C142.944 33.718 143.896 36.7637 143.896 41.088H145.896C145.896 36.5163 144.895 32.906 142.717 30.4417L141.218 31.7663ZM143.896 41.088C143.896 43.9027 143.462 46.2196 142.638 48.0739L144.465 48.8861C145.433 46.7084 145.896 44.0973 145.896 41.088H143.896ZM142.635 48.0807C141.839 49.909 140.727 51.247 139.317 52.1497L140.395 53.8343C142.184 52.689 143.537 51.019 144.468 48.8793L142.635 48.0807ZM139.321 52.1469C137.937 53.0228 136.272 53.48 134.288 53.48V55.48C136.591 55.48 138.639 54.9452 140.39 53.8371L139.321 52.1469ZM134.288 53.48C133.064 53.48 132.009 53.3157 131.109 53.0063L130.459 54.8977C131.607 55.2923 132.888 55.48 134.288 55.48V53.48ZM131.109 53.0063C130.164 52.6816 129.379 52.2773 128.738 51.8038L127.549 53.4122C128.381 54.0267 129.355 54.5184 130.459 54.8977L131.109 53.0063ZM128.777 51.834C128.129 51.3037 127.576 50.7353 127.115 50.13L125.524 51.342C126.087 52.0807 126.751 52.7603 127.51 53.382L128.777 51.834ZM126.32 49.736H126.032V51.736H126.32V49.736ZM125.038 50.8528C125.1 51.3785 125.163 52.052 125.227 52.8767L127.221 52.7233C127.156 51.884 127.091 51.1815 127.025 50.6192L125.038 50.8528ZM125.227 52.8767C125.289 53.6918 125.32 54.385 125.32 54.96H127.32C127.32 54.319 127.286 53.5722 127.221 52.7233L125.227 52.8767ZM125.32 54.96V65.52H127.32V54.96H125.32ZM126.32 64.52H122.096V66.52H126.32V64.52ZM123.096 65.52V28.272H121.096V65.52H123.096ZM122.096 29.272H125.552V27.272H122.096V29.272ZM124.565 28.4342L125.141 31.9382L127.114 31.6138L126.538 28.1098L124.565 28.4342ZM126.128 32.776H126.32V30.776H126.128V32.776ZM127.141 32.3471C127.603 31.6823 128.154 31.0722 128.797 30.5168L127.49 29.0032C126.725 29.6638 126.06 30.3977 125.499 31.2049L127.141 32.3471ZM128.781 30.531C129.418 30.0046 130.177 29.5794 131.07 29.2624L130.401 27.3776C129.31 27.7646 128.342 28.2994 127.507 28.989L128.781 30.531ZM131.061 29.2657C131.956 28.9579 133.042 28.792 134.336 28.792V26.792C132.878 26.792 131.563 26.9781 130.411 27.3743L131.061 29.2657ZM133.568 30.344C131.719 30.344 130.121 30.7023 128.855 31.5083L129.929 33.1957C130.774 32.6577 131.96 32.344 133.568 32.344V30.344ZM128.873 31.4968C127.598 32.2699 126.696 33.4406 126.149 34.9364L128.027 35.6236C128.44 34.4954 129.074 33.7141 129.91 33.2072L128.873 31.4968ZM126.149 34.9364C125.617 36.3889 125.353 38.1735 125.32 40.2561L127.319 40.2879C127.35 38.3385 127.598 36.7951 128.027 35.6236L126.149 34.9364ZM125.32 40.272V41.088H127.32V40.272H125.32ZM125.32 41.088C125.32 43.2647 125.55 45.161 126.035 46.7552L127.948 46.1728C127.537 44.823 127.32 43.1353 127.32 41.088H125.32ZM126.035 46.7552C126.535 48.3968 127.398 49.7151 128.659 50.6327L129.836 49.0153C128.986 48.3969 128.345 47.4752 127.948 46.1728L126.035 46.7552ZM128.671 50.641C129.982 51.5667 131.68 51.976 133.664 51.976V49.976C131.935 49.976 130.689 49.6173 129.824 49.007L128.671 50.641ZM133.664 51.976C135.424 51.976 136.953 51.486 138.16 50.4341L136.847 48.9259C136.071 49.602 135.039 49.976 133.664 49.976V51.976ZM138.148 50.4443C139.336 49.4426 140.182 48.1069 140.71 46.486L138.809 45.866C138.377 47.1891 137.72 48.1894 136.859 48.9157L138.148 50.4443ZM140.706 46.4983C141.26 44.8714 141.528 43.0475 141.528 41.04H139.528C139.528 42.8725 139.283 44.4726 138.813 45.8537L140.706 46.4983ZM141.528 41.04C141.528 37.9762 140.93 35.412 139.636 33.4363L137.963 34.5317C138.974 36.0759 139.528 38.2158 139.528 41.04H141.528ZM139.643 33.4471C138.312 31.3555 136.223 30.344 133.568 30.344V32.344C135.648 32.344 137.047 33.0925 137.956 34.5209L139.643 33.4471ZM167.227 29.232L166.705 30.0849L166.712 30.0895L167.227 29.232ZM170.875 33.312L169.971 33.7394L169.976 33.7493L169.98 33.7592L170.875 33.312ZM172.171 41.952V42.952H173.171V41.952H172.171ZM154.555 41.952V40.952H153.533L153.555 41.974L154.555 41.952ZM156.763 48.624L156.026 49.2997L156.033 49.3077L156.041 49.3156L156.763 48.624ZM167.083 50.448L167.308 51.4224L167.317 51.4203L167.325 51.4181L167.083 50.448ZM171.019 49.104H172.019V47.5875L170.625 48.1849L171.019 49.104ZM171.019 52.8L171.421 53.7156L172.019 53.4531V52.8H171.019ZM167.131 54.048L166.935 53.0674L166.923 53.0698L166.911 53.0724L167.131 54.048ZM156.091 52.992L155.619 53.874L155.626 53.8772L156.091 52.992ZM151.723 48.576L150.834 49.0346L150.839 49.0433L150.843 49.0518L151.723 48.576ZM151.579 34.08L150.676 33.65L150.67 33.6619L151.579 34.08ZM155.563 29.424L155.03 28.5777L155.023 28.5823L155.563 29.424ZM156.715 33.216L155.972 32.546L155.972 32.547L156.715 33.216ZM154.651 38.592L153.656 38.4952L153.549 39.592H154.651V38.592ZM167.755 38.592V39.592H168.755V38.592H167.755ZM167.083 34.752L166.158 35.1327L166.158 35.1327L167.083 34.752ZM165.019 32.208L164.438 33.0217L164.454 33.0334L164.471 33.0445L165.019 32.208ZM161.563 28.792C163.624 28.792 165.323 29.2388 166.705 30.0848L167.749 28.3791C165.995 27.3052 163.918 26.792 161.563 26.792V28.792ZM166.712 30.0895C168.135 30.9432 169.219 32.1499 169.971 33.7394L171.779 32.8846C170.866 30.9541 169.518 29.4408 167.741 28.3745L166.712 30.0895ZM169.98 33.7592C170.762 35.3223 171.171 37.1952 171.171 39.408H173.171C173.171 36.9488 172.716 34.7577 171.769 32.8648L169.98 33.7592ZM171.171 39.408V41.952H173.171V39.408H171.171ZM172.171 40.952H154.555V42.952H172.171V40.952ZM153.555 41.974C153.622 45.0324 154.399 47.5248 156.026 49.2997L157.5 47.9483C156.311 46.6512 155.615 44.6956 155.555 41.93L153.555 41.974ZM156.041 49.3156C157.711 51.0602 159.997 51.88 162.763 51.88V49.88C160.409 49.88 158.695 49.1958 157.485 47.9324L156.041 49.3156ZM162.763 51.88C164.451 51.88 165.969 51.7313 167.308 51.4224L166.858 49.4736C165.701 49.7407 164.339 49.88 162.763 49.88V51.88ZM167.325 51.4181C168.662 51.0839 170.025 50.6179 171.413 50.0231L170.625 48.1849C169.325 48.7421 168.063 49.1721 166.84 49.4779L167.325 51.4181ZM170.019 49.104V52.8H172.019V49.104H170.019ZM170.617 51.8844C169.365 52.4341 168.137 52.8269 166.935 53.0674L167.327 55.0286C168.684 54.7571 170.049 54.3179 171.421 53.7156L170.617 51.8844ZM166.911 53.0724C165.723 53.3398 164.28 53.48 162.571 53.48V55.48C164.381 55.48 165.979 55.3322 167.35 55.0236L166.911 53.0724ZM162.571 53.48C160.278 53.48 158.282 53.0134 156.556 52.1068L155.626 53.8772C157.676 54.9546 160 55.48 162.571 55.48V53.48ZM156.562 52.1101C154.889 51.2157 153.57 49.8896 152.602 48.1002L150.843 49.0518C151.987 51.1664 153.581 52.7843 155.619 53.8739L156.562 52.1101ZM152.611 48.1174C151.678 46.3088 151.187 44.0592 151.187 41.328H149.187C149.187 44.2928 149.72 46.8752 150.834 49.0346L152.611 48.1174ZM151.187 41.328C151.187 38.6188 151.634 36.3527 152.487 34.4981L150.67 33.6619C149.668 35.8393 149.187 38.4052 149.187 41.328H151.187ZM152.482 34.5099C153.37 32.6436 154.58 31.2423 156.103 30.2657L155.023 28.5823C153.153 29.7817 151.707 31.4844 150.676 33.6501L152.482 34.5099ZM156.096 30.2702C157.647 29.2938 159.458 28.792 161.563 28.792V26.792C159.124 26.792 156.935 27.3782 155.03 28.5778L156.096 30.2702ZM161.515 30.248C159.26 30.248 157.374 30.9933 155.972 32.546L157.457 33.886C158.424 32.8147 159.738 32.248 161.515 32.248V30.248ZM155.972 32.547C154.635 34.0326 153.893 36.0509 153.656 38.4952L155.646 38.6888C155.857 36.5251 156.491 34.9594 157.458 33.885L155.972 32.547ZM154.651 39.592H167.755V37.592H154.651V39.592ZM168.755 38.592C168.755 37.021 168.516 35.6062 168.008 34.3712L166.158 35.1327C166.546 36.0738 166.755 37.219 166.755 38.592H168.755ZM168.008 34.3712C167.488 33.1088 166.674 32.0969 165.567 31.3715L164.471 33.0445C165.22 33.5351 165.782 34.2192 166.158 35.1327L168.008 34.3712ZM165.6 31.3943C164.489 30.6007 163.1 30.248 161.515 30.248V32.248C162.81 32.248 163.757 32.5353 164.438 33.0217L165.6 31.3943ZM192.257 27.888L192.14 28.8811L192.17 28.8847L192.201 28.8865L192.257 27.888ZM193.745 28.08L194.736 28.2146L194.858 27.3107L193.969 27.1056L193.745 28.08ZM193.217 31.968L192.992 32.9424L194.06 33.1889L194.208 32.1026L193.217 31.968ZM191.825 31.728L191.692 32.7193L191.701 32.7203L191.825 31.728ZM187.601 32.256L188.022 33.163L188.022 33.163L187.601 32.256ZM185.201 34.032L185.923 34.7232L185.931 34.7156L185.938 34.7077L185.201 34.032ZM183.521 36.72L182.59 36.3535L182.585 36.3658L182.581 36.3783L183.521 36.72ZM182.945 54V55H183.945V54H182.945ZM178.721 54H177.721V55H178.721V54ZM178.721 28.272V27.272H177.721V28.272H178.721ZM182.177 28.272L183.171 28.1705L183.08 27.272H182.177V28.272ZM182.657 32.976L181.662 33.0775L181.753 33.976H182.657V32.976ZM182.849 32.976V33.976H183.431L183.719 33.469L182.849 32.976ZM184.817 30.384L185.524 31.0911L185.531 31.0839L185.538 31.0765L184.817 30.384ZM187.457 28.512L187.868 29.4234L187.88 29.4179L187.892 29.4122L187.457 28.512ZM190.721 28.792C191.157 28.792 191.629 28.8211 192.14 28.8811L192.373 26.8948C191.796 26.8269 191.245 26.792 190.721 26.792V28.792ZM192.201 28.8865C192.739 28.9163 193.175 28.9748 193.52 29.0544L193.969 27.1056C193.482 26.9932 192.927 26.9237 192.312 26.8895L192.201 28.8865ZM192.754 27.9454L192.226 31.8334L194.208 32.1026L194.736 28.2146L192.754 27.9454ZM193.441 30.9936C192.986 30.8885 192.488 30.8031 191.949 30.7357L191.701 32.7203C192.185 32.7809 192.615 32.8555 192.992 32.9424L193.441 30.9936ZM191.957 30.7368C191.436 30.6674 190.928 30.632 190.433 30.632V32.632C190.833 32.632 191.253 32.6606 191.692 32.7192L191.957 30.7368ZM190.433 30.632C189.296 30.632 188.208 30.8715 187.18 31.349L188.022 33.163C188.785 32.8085 189.585 32.632 190.433 32.632V30.632ZM187.18 31.349C186.157 31.8235 185.252 32.4965 184.463 33.3563L185.938 34.7077C186.558 34.0315 187.252 33.5205 188.022 33.163L187.18 31.349ZM184.478 33.3408C183.675 34.1807 183.048 35.1906 182.59 36.3535L184.451 37.0865C184.825 36.1374 185.319 35.3553 185.923 34.7232L184.478 33.3408ZM182.581 36.3783C182.151 37.5605 181.945 38.8626 181.945 40.272H183.945C183.945 39.0574 184.122 37.9915 184.46 37.0617L182.581 36.3783ZM181.945 40.272V54H183.945V40.272H181.945ZM182.945 53H178.721V55H182.945V53ZM179.721 54V28.272H177.721V54H179.721ZM178.721 29.272H182.177V27.272H178.721V29.272ZM181.182 28.3735L181.662 33.0775L183.651 32.8745L183.171 28.1705L181.182 28.3735ZM182.657 33.976H182.849V31.976H182.657V33.976ZM183.719 33.469C184.219 32.5861 184.82 31.7944 185.524 31.0911L184.11 29.6769C183.277 30.5096 182.566 31.4459 181.979 32.483L183.719 33.469ZM185.538 31.0765C186.219 30.3668 186.995 29.8179 187.868 29.4234L187.045 27.6006C185.935 28.1021 184.95 28.8012 184.095 29.6915L185.538 31.0765ZM187.892 29.4122C188.738 29.0027 189.676 28.792 190.721 28.792V26.792C189.397 26.792 188.159 27.0613 187.021 27.6118L187.892 29.4122ZM219.115 46.8L218.17 46.4729L218.167 46.4838L219.115 46.8ZM216.715 50.976L215.978 50.3003L215.973 50.3059L215.968 50.3116L216.715 50.976ZM212.923 53.616L213.288 54.5473L213.298 54.5431L212.923 53.616ZM203.275 53.616L202.886 54.5372L202.895 54.5409L202.904 54.5445L203.275 53.616ZM199.531 50.976L198.794 51.6517L198.794 51.6517L199.531 50.976ZM197.035 46.8L196.09 47.1271L196.094 47.1382L196.098 47.1491L197.035 46.8ZM197.611 33.888L198.509 34.3293L198.511 34.3236L197.611 33.888ZM201.739 29.376L202.235 30.2443L202.247 30.2375L201.739 29.376ZM214.267 29.376L213.753 30.2335L213.762 30.239L213.771 30.2442L214.267 29.376ZM218.443 33.888L217.549 34.3352L217.553 34.3439L217.558 34.3525L218.443 33.888ZM201.307 46.368L200.361 46.6903L200.365 46.7025L200.369 46.7146L201.307 46.368ZM203.803 49.776L204.384 48.9623L204.384 48.9623L203.803 49.776ZM212.347 49.776L211.766 48.9623L211.766 48.9623L212.347 49.776ZM214.795 46.368L213.855 46.0278L213.851 46.0395L214.795 46.368ZM214.795 35.856L215.731 35.5026L215.731 35.5026L214.795 35.856ZM212.299 32.544L211.707 33.3496L211.72 33.3594L211.734 33.3687L212.299 32.544ZM202.315 33.936L203.14 34.5012L203.14 34.5012L202.315 33.936ZM218.979 41.088C218.979 43.1441 218.703 44.9341 218.17 46.4729L220.06 47.1271C220.68 45.3378 220.979 43.3199 220.979 41.088H218.979ZM218.167 46.4838C217.663 47.996 216.93 49.2619 215.978 50.3003L217.452 51.6517C218.613 50.3861 219.48 48.868 220.064 47.1162L218.167 46.4838ZM215.968 50.3116C215.052 51.3425 213.917 52.1355 212.548 52.6889L213.298 54.5431C214.937 53.8805 216.331 52.9135 217.463 51.6404L215.968 50.3116ZM212.559 52.6848C211.219 53.2089 209.698 53.48 207.979 53.48V55.48C209.909 55.48 211.683 55.1751 213.288 54.5472L212.559 52.6848ZM207.979 53.48C206.399 53.48 204.958 53.212 203.647 52.6875L202.904 54.5445C204.473 55.172 206.168 55.48 207.979 55.48V53.48ZM203.664 52.6948C202.357 52.1426 201.227 51.3464 200.268 50.3003L198.794 51.6517C199.947 52.9096 201.314 53.8734 202.886 54.5372L203.664 52.6948ZM200.268 50.3003C199.309 49.2535 198.54 47.976 197.972 46.4509L196.098 47.1491C196.746 48.888 197.642 50.3945 198.794 51.6517L200.268 50.3003ZM197.98 46.4729C197.448 44.9341 197.171 43.1441 197.171 41.088H195.171C195.171 43.3199 195.471 45.3379 196.09 47.1271L197.98 46.4729ZM197.171 41.088C197.171 38.3475 197.634 36.1083 198.509 34.3293L196.714 33.4467C195.669 35.5717 195.171 38.1324 195.171 41.088H197.171ZM198.511 34.3236C199.39 32.5083 200.631 31.1612 202.235 30.2442L201.243 28.5078C199.264 29.6388 197.753 31.2997 196.711 33.4524L198.511 34.3236ZM202.247 30.2375C203.859 29.2877 205.805 28.792 208.123 28.792V26.792C205.514 26.792 203.204 27.3523 201.232 28.5145L202.247 30.2375ZM208.123 28.792C210.304 28.792 212.169 29.2831 213.753 30.2335L214.782 28.5185C212.846 27.3569 210.615 26.792 208.123 26.792V28.792ZM213.771 30.2442C215.379 31.1629 216.638 32.514 217.549 34.3352L219.338 33.4408C218.264 31.294 216.74 29.6371 214.763 28.5078L213.771 30.2442ZM217.558 34.3525C218.488 36.1255 218.979 38.356 218.979 41.088H220.979C220.979 38.124 220.447 35.5545 219.329 33.4234L217.558 34.3525ZM199.539 41.088C199.539 43.1855 199.805 45.0589 200.361 46.6903L202.254 46.0457C201.785 44.6691 201.539 43.0225 201.539 41.088H199.539ZM200.369 46.7146C200.973 48.3474 201.917 49.6575 203.222 50.5897L204.384 48.9623C203.45 48.2945 202.73 47.3326 202.245 46.0213L200.369 46.7146ZM203.222 50.5897C204.551 51.5387 206.192 51.976 208.075 51.976V49.976C206.502 49.976 205.296 49.6133 204.384 48.9623L203.222 50.5897ZM208.075 51.976C209.958 51.976 211.6 51.5387 212.928 50.5897L211.766 48.9623C210.855 49.6133 209.648 49.976 208.075 49.976V51.976ZM212.928 50.5897C214.239 49.6539 215.169 48.3371 215.74 46.6965L213.851 46.0395C213.397 47.3429 212.696 48.2981 211.766 48.9623L212.928 50.5897ZM215.736 46.7081C216.328 45.0708 216.611 43.1911 216.611 41.088H214.611C214.611 43.0169 214.351 44.6572 213.855 46.0279L215.736 46.7081ZM216.611 41.088C216.611 38.9568 216.329 37.086 215.731 35.5026L213.86 36.2094C214.35 37.506 214.611 39.1232 214.611 41.088H216.611ZM215.731 35.5026C215.124 33.8979 214.175 32.6179 212.865 31.7193L211.734 33.3687C212.663 34.0061 213.378 34.9341 213.86 36.2094L215.731 35.5026ZM212.892 31.7383C211.586 30.7786 209.936 30.344 208.027 30.344V32.344C209.639 32.344 210.836 32.7094 211.707 33.3496L212.892 31.7383ZM208.027 30.344C205.167 30.344 202.908 31.3014 201.49 33.3708L203.14 34.5012C204.09 33.1146 205.639 32.344 208.027 32.344V30.344ZM201.49 33.3708C200.151 35.3247 199.539 37.933 199.539 41.088H201.539C201.539 38.163 202.111 36.0033 203.14 34.5012L201.49 33.3708ZM225.618 33.504L224.629 33.3557L224.628 33.3637L224.627 33.3718L225.618 33.504ZM227.058 28.08L227.987 28.4484L227.99 28.4424L227.058 28.08ZM229.842 23.52L230.584 24.19L230.592 24.181L229.842 23.52ZM234.306 20.4L234.686 21.3251L234.694 21.3216L234.306 20.4ZM243.138 19.344L243.058 20.3408L243.061 20.3411L243.138 19.344ZM245.154 19.68H246.154V18.9448L245.452 18.7255L245.154 19.68ZM245.154 23.28L244.838 24.2287L246.154 24.6674V23.28H245.154ZM243.186 22.848L243.051 23.8388L243.056 23.8396L243.186 22.848ZM235.506 23.808L235.953 24.7024L235.953 24.7024L235.506 23.808ZM232.002 26.832L231.173 26.2725L231.168 26.2797L231.163 26.287L232.002 26.832ZM230.178 31.248L229.203 31.0231L229.203 31.0231L230.178 31.248ZM229.458 36.576L228.459 36.5252L228.406 37.576H229.458V36.576ZM229.746 36.576V37.576H230.3L230.594 37.106L229.746 36.576ZM234.21 33.072L233.894 32.1233L233.885 32.1263L234.21 33.072ZM243.042 33.792L242.55 34.6626L242.561 34.6689L242.572 34.6749L243.042 33.792ZM246.546 37.344L245.662 37.8127L245.666 37.8203L246.546 37.344ZM246.45 49.104L245.562 48.6437L245.562 48.6437L246.45 49.104ZM242.658 53.088L242.163 52.2187L242.156 52.223L242.658 53.088ZM232.338 53.568L232.734 52.6499L232.338 53.568ZM228.594 50.784L227.83 51.4299L227.835 51.4356L227.84 51.4411L228.594 50.784ZM226.098 46.08L225.14 46.3673L225.143 46.377L225.146 46.3865L226.098 46.08ZM241.746 49.008L242.462 49.7062L242.47 49.6972L241.746 49.008ZM241.938 37.776L241.176 38.4236L241.18 38.4291L241.185 38.4345L241.938 37.776ZM233.058 36.816L233.535 37.6949L233.544 37.6897L233.554 37.6842L233.058 36.816ZM230.418 39.168L229.586 38.6133L229.579 38.623L229.573 38.6329L230.418 39.168ZM229.938 45.264L228.975 45.5347L228.979 45.5486L228.983 45.5623L229.938 45.264ZM231.33 48.096L230.512 48.6715L230.519 48.6814L230.526 48.6912L231.33 48.096ZM233.634 50.16L233.138 51.0282L233.144 51.032L233.151 51.0356L233.634 50.16ZM226.234 39.36C226.234 37.4191 226.359 35.5113 226.609 33.6362L224.627 33.3718C224.365 35.3367 224.234 37.3329 224.234 39.36H226.234ZM226.607 33.6523C226.884 31.8029 227.345 30.0691 227.987 28.4484L226.128 27.7116C225.426 29.4829 224.927 31.3651 224.629 33.3557L226.607 33.6523ZM227.99 28.4424C228.62 26.822 229.485 25.4074 230.584 24.19L229.099 22.85C227.83 24.2566 226.84 25.882 226.126 27.7176L227.99 28.4424ZM230.592 24.181C231.666 22.9615 233.024 22.0075 234.686 21.325L233.926 19.475C232.004 20.2645 230.385 21.3905 229.091 22.859L230.592 24.181ZM234.694 21.3216C236.363 20.6187 238.432 20.248 240.93 20.248V18.248C238.244 18.248 235.896 18.6453 233.918 19.4784L234.694 21.3216ZM240.93 20.248C241.571 20.248 242.28 20.2785 243.058 20.3408L243.217 18.3472C242.396 18.2815 241.633 18.248 240.93 18.248V20.248ZM243.061 20.3411C243.854 20.4021 244.444 20.5058 244.855 20.6345L245.452 18.7255C244.84 18.5342 244.085 18.4139 243.214 18.3469L243.061 20.3411ZM244.154 19.68V23.28H246.154V19.68H244.154ZM245.47 22.3313C244.822 22.1152 244.101 21.9589 243.315 21.8564L243.056 23.8396C243.742 23.9291 244.334 24.0608 244.838 24.2287L245.47 22.3313ZM243.321 21.8572C242.571 21.7548 241.805 21.704 241.026 21.704V23.704C241.718 23.704 242.393 23.7491 243.051 23.8388L243.321 21.8572ZM241.026 21.704C238.713 21.704 236.708 22.0886 235.059 22.9136L235.953 24.7024C237.247 24.0554 238.922 23.704 241.026 23.704V21.704ZM235.059 22.9136C233.443 23.7213 232.14 24.8405 231.173 26.2725L232.831 27.3915C233.592 26.2635 234.624 25.3667 235.953 24.7024L235.059 22.9136ZM231.163 26.287C230.261 27.6759 229.611 29.2587 229.203 31.0231L231.152 31.4729C231.513 29.9093 232.079 28.5481 232.84 27.377L231.163 26.287ZM229.203 31.0231C228.805 32.75 228.558 34.5847 228.459 36.5252L230.456 36.6268C230.55 34.7913 230.783 33.074 231.152 31.4729L229.203 31.0231ZM229.458 37.576H229.746V35.576H229.458V37.576ZM230.594 37.106C231.014 36.434 231.549 35.8262 232.207 35.283L230.933 33.741C230.119 34.4138 229.438 35.182 228.898 36.046L230.594 37.106ZM232.207 35.283C232.838 34.761 233.609 34.3358 234.535 34.0177L233.885 32.1263C232.762 32.5122 231.773 33.047 230.933 33.741L232.207 35.283ZM234.526 34.0207C235.459 33.7096 236.565 33.544 237.858 33.544V31.544C236.399 31.544 235.072 31.7304 233.894 32.1233L234.526 34.0207ZM237.858 33.544C239.699 33.544 241.252 33.9291 242.55 34.6626L243.534 32.9214C241.888 31.9909 239.984 31.544 237.858 31.544V33.544ZM242.572 34.6749C243.892 35.3771 244.92 36.4131 245.662 37.8127L247.429 36.8753C246.508 35.1389 245.199 33.8069 243.511 32.9091L242.572 34.6749ZM245.666 37.8203C246.401 39.1764 246.794 40.8753 246.794 42.96H248.794C248.794 40.6287 248.354 38.5836 247.425 36.8677L245.666 37.8203ZM246.794 42.96C246.794 45.2021 246.37 47.0855 245.562 48.6437L247.338 49.5643C248.322 47.6665 248.794 45.4539 248.794 42.96H246.794ZM245.562 48.6437C244.751 50.2069 243.621 51.3898 242.163 52.2187L243.152 53.9573C244.958 52.9302 246.356 51.4571 247.338 49.5643L245.562 48.6437ZM242.156 52.223C240.738 53.0456 238.999 53.48 236.898 53.48V55.48C239.277 55.48 241.378 54.9864 243.159 53.953L242.156 52.223ZM236.898 53.48C235.393 53.48 234.009 53.2005 232.734 52.6499L231.941 54.4861C233.482 55.1515 235.138 55.48 236.898 55.48V53.48ZM232.734 52.6499C231.474 52.1058 230.345 51.2714 229.348 50.1269L227.84 51.4411C229.018 52.7926 230.386 53.8142 231.941 54.4861L232.734 52.6499ZM229.357 50.1381C228.401 49.0086 227.626 47.563 227.05 45.7735L225.146 46.3865C225.786 48.373 226.674 50.0634 227.83 51.4299L229.357 50.1381ZM227.056 45.7927C226.514 43.9875 226.234 41.8482 226.234 39.36H224.234C224.234 41.9918 224.529 44.3325 225.14 46.3673L227.056 45.7927ZM236.85 51.928C239.098 51.928 241.001 51.2046 242.462 49.7061L241.03 48.3099C239.995 49.3714 238.634 49.928 236.85 49.928V51.928ZM242.47 49.6972C243.966 48.1245 244.618 45.8103 244.618 42.96H242.618C242.618 45.5497 242.021 47.2675 241.021 48.3188L242.47 49.6972ZM244.618 42.96C244.618 40.6113 244.01 38.6261 242.69 37.1175L241.185 38.4345C242.105 39.4859 242.618 40.9567 242.618 42.96H244.618ZM242.7 37.1283C241.366 35.5594 239.397 34.856 236.994 34.856V36.856C239.007 36.856 240.333 37.4326 241.176 38.4236L242.7 37.1283ZM236.994 34.856C235.345 34.856 233.856 35.208 232.562 35.9478L233.554 37.6842C234.499 37.144 235.635 36.856 236.994 36.856V34.856ZM232.581 35.9371C231.333 36.6145 230.325 37.5043 229.586 38.6133L231.25 39.7227C231.79 38.9117 232.543 38.2335 233.535 37.6949L232.581 35.9371ZM229.573 38.6329C228.875 39.7349 228.506 40.9102 228.506 42.144H230.506C230.506 41.3298 230.744 40.5211 231.263 39.7031L229.573 38.6329ZM228.506 42.144C228.506 43.2922 228.663 44.4233 228.975 45.5347L230.9 44.9933C230.637 44.0567 230.506 43.1078 230.506 42.144H228.506ZM228.983 45.5623C229.334 46.6837 229.843 47.7214 230.512 48.6715L232.148 47.5205C231.6 46.7426 231.182 45.8923 230.892 44.9657L228.983 45.5623ZM230.526 48.6912C231.245 49.6618 232.116 50.4446 233.138 51.0282L234.13 49.2918C233.359 48.8514 232.694 48.2582 232.133 47.5008L230.526 48.6912ZM233.151 51.0356C234.247 51.6405 235.49 51.928 236.85 51.928V49.928C235.778 49.928 234.876 49.7035 234.117 49.2844L233.151 51.0356ZM267.103 54V55H268.103V54H267.103ZM262.975 54H261.975V55H262.975V54ZM262.975 27.696L261.976 27.6461L261.975 27.671V27.696H262.975ZM263.071 25.92L264.069 25.9787L264.069 25.9755L263.071 25.92ZM263.167 24.144L264.165 24.1966L264.302 21.5942L262.459 23.4369L263.167 24.144ZM261.775 25.44L262.42 26.2034L262.42 26.2034L261.775 25.44ZM260.191 26.784L260.823 27.5589L260.83 27.5525L260.838 27.5459L260.191 26.784ZM256.543 29.76L255.754 30.3749L256.382 31.1811L257.175 30.5349L256.543 29.76ZM254.335 26.928L253.721 26.1384L252.93 26.753L253.546 27.5429L254.335 26.928ZM263.599 19.728V18.728H263.256L262.985 18.9384L263.599 19.728ZM267.103 19.728H268.103V18.728H267.103V19.728ZM267.103 53H262.975V55H267.103V53ZM263.975 54V30.048H261.975V54H263.975ZM263.975 30.048C263.975 30.0462 263.975 30.0444 263.975 30.0426C263.975 30.0408 263.975 30.0389 263.975 30.0371C263.975 30.0353 263.975 30.0335 263.975 30.0317C263.975 30.0299 263.975 30.0281 263.975 30.0263C263.975 30.0245 263.975 30.0227 263.975 30.0209C263.975 30.019 263.975 30.0172 263.975 30.0154C263.975 30.0136 263.975 30.0118 263.975 30.01C263.975 30.0082 263.975 30.0064 263.975 30.0046C263.975 30.0028 263.975 30.001 263.975 29.9992C263.975 29.9974 263.975 29.9956 263.975 29.9938C263.975 29.992 263.975 29.9902 263.975 29.9884C263.975 29.9866 263.975 29.9848 263.975 29.983C263.975 29.9812 263.975 29.9794 263.975 29.9776C263.975 29.9758 263.975 29.974 263.975 29.9722C263.975 29.9704 263.975 29.9686 263.975 29.9668C263.975 29.965 263.975 29.9632 263.975 29.9614C263.975 29.9596 263.975 29.9578 263.975 29.956C263.975 29.9542 263.975 29.9525 263.975 29.9507C263.975 29.9489 263.975 29.9471 263.975 29.9453C263.975 29.9435 263.975 29.9417 263.975 29.9399C263.975 29.9381 263.975 29.9363 263.975 29.9345C263.975 29.9327 263.975 29.931 263.975 29.9292C263.975 29.9274 263.975 29.9256 263.975 29.9238C263.975 29.922 263.975 29.9202 263.975 29.9184C263.975 29.9167 263.975 29.9149 263.975 29.9131C263.975 29.9113 263.975 29.9095 263.975 29.9077C263.975 29.906 263.975 29.9042 263.975 29.9024C263.975 29.9006 263.975 29.8988 263.975 29.897C263.975 29.8953 263.975 29.8935 263.975 29.8917C263.975 29.8899 263.975 29.8881 263.975 29.8864C263.975 29.8846 263.975 29.8828 263.975 29.881C263.975 29.8792 263.975 29.8775 263.975 29.8757C263.975 29.8739 263.975 29.8721 263.975 29.8704C263.975 29.8686 263.975 29.8668 263.975 29.865C263.975 29.8633 263.975 29.8615 263.975 29.8597C263.975 29.8579 263.975 29.8562 263.975 29.8544C263.975 29.8526 263.975 29.8508 263.975 29.8491C263.975 29.8473 263.975 29.8455 263.975 29.8438C263.975 29.842 263.975 29.8402 263.975 29.8384C263.975 29.8367 263.975 29.8349 263.975 29.8331C263.975 29.8314 263.975 29.8296 263.975 29.8278C263.975 29.8261 263.975 29.8243 263.975 29.8225C263.975 29.8208 263.975 29.819 263.975 29.8172C263.975 29.8155 263.975 29.8137 263.975 29.8119C263.975 29.8102 263.975 29.8084 263.975 29.8066C263.975 29.8049 263.975 29.8031 263.975 29.8014C263.975 29.7996 263.975 29.7978 263.975 29.7961C263.975 29.7943 263.975 29.7926 263.975 29.7908C263.975 29.789 263.975 29.7873 263.975 29.7855C263.975 29.7838 263.975 29.782 263.975 29.7802C263.975 29.7785 263.975 29.7767 263.975 29.775C263.975 29.7732 263.975 29.7715 263.975 29.7697C263.975 29.768 263.975 29.7662 263.975 29.7644C263.975 29.7627 263.975 29.7609 263.975 29.7592C263.975 29.7574 263.975 29.7557 263.975 29.7539C263.975 29.7522 263.975 29.7504 263.975 29.7487C263.975 29.7469 263.975 29.7452 263.975 29.7434C263.975 29.7417 263.975 29.7399 263.975 29.7382C263.975 29.7364 263.975 29.7347 263.975 29.7329C263.975 29.7312 263.975 29.7294 263.975 29.7277C263.975 29.7259 263.975 29.7242 263.975 29.7224C263.975 29.7207 263.975 29.719 263.975 29.7172C263.975 29.7155 263.975 29.7137 263.975 29.712C263.975 29.7102 263.975 29.7085 263.975 29.7067C263.975 29.705 263.975 29.7033 263.975 29.7015C263.975 29.6998 263.975 29.698 263.975 29.6963C263.975 29.6946 263.975 29.6928 263.975 29.6911C263.975 29.6893 263.975 29.6876 263.975 29.6859C263.975 29.6841 263.975 29.6824 263.975 29.6807C263.975 29.6789 263.975 29.6772 263.975 29.6754C263.975 29.6737 263.975 29.672 263.975 29.6702C263.975 29.6685 263.975 29.6668 263.975 29.665C263.975 29.6633 263.975 29.6616 263.975 29.6598C263.975 29.6581 263.975 29.6564 263.975 29.6546C263.975 29.6529 263.975 29.6512 263.975 29.6495C263.975 29.6477 263.975 29.646 263.975 29.6443C263.975 29.6425 263.975 29.6408 263.975 29.6391C263.975 29.6374 263.975 29.6356 263.975 29.6339C263.975 29.6322 263.975 29.6304 263.975 29.6287C263.975 29.627 263.975 29.6253 263.975 29.6235C263.975 29.6218 263.975 29.6201 263.975 29.6184C263.975 29.6167 263.975 29.6149 263.975 29.6132C263.975 29.6115 263.975 29.6098 263.975 29.608C263.975 29.6063 263.975 29.6046 263.975 29.6029C263.975 29.6012 263.975 29.5994 263.975 29.5977C263.975 29.596 263.975 29.5943 263.975 29.5926C263.975 29.5908 263.975 29.5891 263.975 29.5874C263.975 29.5857 263.975 29.584 263.975 29.5823C263.975 29.5805 263.975 29.5788 263.975 29.5771C263.975 29.5754 263.975 29.5737 263.975 29.572C263.975 29.5703 263.975 29.5685 263.975 29.5668C263.975 29.5651 263.975 29.5634 263.975 29.5617C263.975 29.56 263.975 29.5583 263.975 29.5566C263.975 29.5549 263.975 29.5531 263.975 29.5514C263.975 29.5497 263.975 29.548 263.975 29.5463C263.975 29.5446 263.975 29.5429 263.975 29.5412C263.975 29.5395 263.975 29.5378 263.975 29.5361C263.975 29.5344 263.975 29.5327 263.975 29.531C263.975 29.5292 263.975 29.5275 263.975 29.5258C263.975 29.5241 263.975 29.5224 263.975 29.5207C263.975 29.519 263.975 29.5173 263.975 29.5156C263.975 29.5139 263.975 29.5122 263.975 29.5105C263.975 29.5088 263.975 29.5071 263.975 29.5054C263.975 29.5037 263.975 29.502 263.975 29.5003C263.975 29.4986 263.975 29.4969 263.975 29.4952C263.975 29.4935 263.975 29.4918 263.975 29.4901C263.975 29.4884 263.975 29.4867 263.975 29.4851C263.975 29.4834 263.975 29.4817 263.975 29.48C263.975 29.4783 263.975 29.4766 263.975 29.4749C263.975 29.4732 263.975 29.4715 263.975 29.4698C263.975 29.4681 263.975 29.4664 263.975 29.4647C263.975 29.4631 263.975 29.4614 263.975 29.4597C263.975 29.458 263.975 29.4563 263.975 29.4546C263.975 29.4529 263.975 29.4512 263.975 29.4495C263.975 29.4479 263.975 29.4462 263.975 29.4445C263.975 29.4428 263.975 29.4411 263.975 29.4394C263.975 29.4377 263.975 29.4361 263.975 29.4344C263.975 29.4327 263.975 29.431 263.975 29.4293C263.975 29.4276 263.975 29.426 263.975 29.4243C263.975 29.4226 263.975 29.4209 263.975 29.4192C263.975 29.4175 263.975 29.4159 263.975 29.4142C263.975 29.4125 263.975 29.4108 263.975 29.4092C263.975 29.4075 263.975 29.4058 263.975 29.4041C263.975 29.4024 263.975 29.4008 263.975 29.3991C263.975 29.3974 263.975 29.3957 263.975 29.3941C263.975 29.3924 263.975 29.3907 263.975 29.389C263.975 29.3874 263.975 29.3857 263.975 29.384C263.975 29.3823 263.975 29.3807 263.975 29.379C263.975 29.3773 263.975 29.3757 263.975 29.374C263.975 29.3723 263.975 29.3706 263.975 29.369C263.975 29.3673 263.975 29.3656 263.975 29.364C263.975 29.3623 263.975 29.3606 263.975 29.359C263.975 29.3573 263.975 29.3556 263.975 29.354C263.975 29.3523 263.975 29.3506 263.975 29.349C263.975 29.3473 263.975 29.3456 263.975 29.344C263.975 29.3423 263.975 29.3406 263.975 29.339C263.975 29.3373 263.975 29.3357 263.975 29.334C263.975 29.3323 263.975 29.3307 263.975 29.329C263.975 29.3273 263.975 29.3257 263.975 29.324C263.975 29.3224 263.975 29.3207 263.975 29.319C263.975 29.3174 263.975 29.3157 263.975 29.3141C263.975 29.3124 263.975 29.3108 263.975 29.3091C263.975 29.3074 263.975 29.3058 263.975 29.3041C263.975 29.3025 263.975 29.3008 263.975 29.2992C263.975 29.2975 263.975 29.2959 263.975 29.2942C263.975 29.2926 263.975 29.2909 263.975 29.2893C263.975 29.2876 263.975 29.2859 263.975 29.2843C263.975 29.2826 263.975 29.281 263.975 29.2793C263.975 29.2777 263.975 29.276 263.975 29.2744C263.975 29.2727 263.975 29.2711 263.975 29.2695C263.975 29.2678 263.975 29.2662 263.975 29.2645C263.975 29.2629 263.975 29.2612 263.975 29.2596C263.975 29.2579 263.975 29.2563 263.975 29.2546C263.975 29.253 263.975 29.2514 263.975 29.2497C263.975 29.2481 263.975 29.2464 263.975 29.2448C263.975 29.2431 263.975 29.2415 263.975 29.2399C263.975 29.2382 263.975 29.2366 263.975 29.2349C263.975 29.2333 263.975 29.2317 263.975 29.23C263.975 29.2284 263.975 29.2267 263.975 29.2251C263.975 29.2235 263.975 29.2218 263.975 29.2202C263.975 29.2186 263.975 29.2169 263.975 29.2153C263.975 29.2136 263.975 29.212 263.975 29.2104C263.975 29.2087 263.975 29.2071 263.975 29.2055C263.975 29.2038 263.975 29.2022 263.975 29.2006C263.975 29.1989 263.975 29.1973 263.975 29.1957C263.975 29.194 263.975 29.1924 263.975 29.1908C263.975 29.1892 263.975 29.1875 263.975 29.1859C263.975 29.1843 263.975 29.1826 263.975 29.181C263.975 29.1794 263.975 29.1778 263.975 29.1761C263.975 29.1745 263.975 29.1729 263.975 29.1713C263.975 29.1696 263.975 29.168 263.975 29.1664C263.975 29.1648 263.975 29.1631 263.975 29.1615C263.975 29.1599 263.975 29.1583 263.975 29.1566C263.975 29.155 263.975 29.1534 263.975 29.1518C263.975 29.1501 263.975 29.1485 263.975 29.1469C263.975 29.1453 263.975 29.1437 263.975 29.142C263.975 29.1404 263.975 29.1388 263.975 29.1372C263.975 29.1356 263.975 29.134 263.975 29.1323C263.975 29.1307 263.975 29.1291 263.975 29.1275C263.975 29.1259 263.975 29.1243 263.975 29.1226C263.975 29.121 263.975 29.1194 263.975 29.1178C263.975 29.1162 263.975 29.1146 263.975 29.113C263.975 29.1113 263.975 29.1097 263.975 29.1081C263.975 29.1065 263.975 29.1049 263.975 29.1033C263.975 29.1017 263.975 29.1001 263.975 29.0985C263.975 29.0969 263.975 29.0952 263.975 29.0936C263.975 29.092 263.975 29.0904 263.975 29.0888C263.975 29.0872 263.975 29.0856 263.975 29.084C263.975 29.0824 263.975 29.0808 263.975 29.0792C263.975 29.0776 263.975 29.076 263.975 29.0744C263.975 29.0728 263.975 29.0712 263.975 29.0696C263.975 29.068 263.975 29.0664 263.975 29.0647C263.975 29.0631 263.975 29.0615 263.975 29.0599C263.975 29.0583 263.975 29.0567 263.975 29.0551C263.975 29.0535 263.975 29.0519 263.975 29.0504C263.975 29.0488 263.975 29.0472 263.975 29.0456C263.975 29.044 263.975 29.0424 263.975 29.0408C263.975 29.0392 263.975 29.0376 263.975 29.036C263.975 29.0344 263.975 29.0328 263.975 29.0312C263.975 29.0296 263.975 29.028 263.975 29.0264C263.975 29.0248 263.975 29.0232 263.975 29.0216C263.975 29.02 263.975 29.0185 263.975 29.0169C263.975 29.0153 263.975 29.0137 263.975 29.0121C263.975 29.0105 263.975 29.0089 263.975 29.0073C263.975 29.0057 263.975 29.0042 263.975 29.0026C263.975 29.001 263.975 28.9994 263.975 28.9978C263.975 28.9962 263.975 28.9946 263.975 28.9931C263.975 28.9915 263.975 28.9899 263.975 28.9883C263.975 28.9867 263.975 28.9851 263.975 28.9835C263.975 28.982 263.975 28.9804 263.975 28.9788C263.975 28.9772 263.975 28.9756 263.975 28.9741C263.975 28.9725 263.975 28.9709 263.975 28.9693C263.975 28.9677 263.975 28.9662 263.975 28.9646C263.975 28.963 263.975 28.9614 263.975 28.9598C263.975 28.9583 263.975 28.9567 263.975 28.9551C263.975 28.9535 263.975 28.952 263.975 28.9504C263.975 28.9488 263.975 28.9472 263.975 28.9457C263.975 28.9441 263.975 28.9425 263.975 28.9409C263.975 28.9394 263.975 28.9378 263.975 28.9362C263.975 28.9347 263.975 28.9331 263.975 28.9315C263.975 28.9299 263.975 28.9284 263.975 28.9268C263.975 28.9252 263.975 28.9237 263.975 28.9221C263.975 28.9205 263.975 28.919 263.975 28.9174C263.975 28.9158 263.975 28.9143 263.975 28.9127C263.975 28.9111 263.975 28.9096 263.975 28.908C263.975 28.9064 263.975 28.9049 263.975 28.9033C263.975 28.9017 263.975 28.9002 263.975 28.8986C263.975 28.897 263.975 28.8955 263.975 28.8939C263.975 28.8924 263.975 28.8908 263.975 28.8892C263.975 28.8877 263.975 28.8861 263.975 28.8846C263.975 28.883 263.975 28.8814 263.975 28.8799C263.975 28.8783 263.975 28.8768 263.975 28.8752C263.975 28.8736 263.975 28.8721 263.975 28.8705C263.975 28.869 263.975 28.8674 263.975 28.8659C263.975 28.8643 263.975 28.8627 263.975 28.8612C263.975 28.8596 263.975 28.8581 263.975 28.8565C263.975 28.855 263.975 28.8534 263.975 28.8519C263.975 28.8503 263.975 28.8488 263.975 28.8472C263.975 28.8457 263.975 28.8441 263.975 28.8426C263.975 28.841 263.975 28.8395 263.975 28.8379C263.975 28.8364 263.975 28.8348 263.975 28.8333C263.975 28.8317 263.975 28.8302 263.975 28.8286C263.975 28.8271 263.975 28.8255 263.975 28.824C263.975 28.8225 263.975 28.8209 263.975 28.8194C263.975 28.8178 263.975 28.8163 263.975 28.8147C263.975 28.8132 263.975 28.8116 263.975 28.8101C263.975 28.8086 263.975 28.807 263.975 28.8055C263.975 28.8039 263.975 28.8024 263.975 28.8009C263.975 28.7993 263.975 28.7978 263.975 28.7962C263.975 28.7947 263.975 28.7932 263.975 28.7916C263.975 28.7901 263.975 28.7885 263.975 28.787C263.975 28.7855 263.975 28.7839 263.975 28.7824C263.975 28.7809 263.975 28.7793 263.975 28.7778C263.975 28.7763 263.975 28.7747 263.975 28.7732C263.975 28.7717 263.975 28.7701 263.975 28.7686C263.975 28.7671 263.975 28.7655 263.975 28.764C263.975 28.7625 263.975 28.7609 263.975 28.7594C263.975 28.7579 263.975 28.7563 263.975 28.7548C263.975 28.7533 263.975 28.7518 263.975 28.7502C263.975 28.7487 263.975 28.7472 263.975 28.7457C263.975 28.7441 263.975 28.7426 263.975 28.7411C263.975 28.7395 263.975 28.738 263.975 28.7365C263.975 28.735 263.975 28.7334 263.975 28.7319C263.975 28.7304 263.975 28.7289 263.975 28.7274C263.975 28.7258 263.975 28.7243 263.975 28.7228C263.975 28.7213 263.975 28.7197 263.975 28.7182C263.975 28.7167 263.975 28.7152 263.975 28.7137C263.975 28.7121 263.975 28.7106 263.975 28.7091C263.975 28.7076 263.975 28.7061 263.975 28.7046C263.975 28.703 263.975 28.7015 263.975 28.7C263.975 28.6985 263.975 28.697 263.975 28.6955C263.975 28.6939 263.975 28.6924 263.975 28.6909C263.975 28.6894 263.975 28.6879 263.975 28.6864C263.975 28.6849 263.975 28.6834 263.975 28.6818C263.975 28.6803 263.975 28.6788 263.975 28.6773C263.975 28.6758 263.975 28.6743 263.975 28.6728C263.975 28.6713 263.975 28.6698 263.975 28.6683C263.975 28.6667 263.975 28.6652 263.975 28.6637C263.975 28.6622 263.975 28.6607 263.975 28.6592C263.975 28.6577 263.975 28.6562 263.975 28.6547C263.975 28.6532 263.975 28.6517 263.975 28.6502C263.975 28.6487 263.975 28.6472 263.975 28.6457C263.975 28.6442 263.975 28.6427 263.975 28.6412C263.975 28.6397 263.975 28.6382 263.975 28.6367C263.975 28.6352 263.975 28.6337 263.975 28.6322C263.975 28.6307 263.975 28.6292 263.975 28.6277C263.975 28.6262 263.975 28.6247 263.975 28.6232C263.975 28.6217 263.975 28.6202 263.975 28.6187C263.975 28.6172 263.975 28.6157 263.975 28.6142C263.975 28.6127 263.975 28.6112 263.975 28.6097C263.975 28.6082 263.975 28.6067 263.975 28.6052C263.975 28.6037 263.975 28.6023 263.975 28.6008C263.975 28.5993 263.975 28.5978 263.975 28.5963C263.975 28.5948 263.975 28.5933 263.975 28.5918C263.975 28.5903 263.975 28.5888 263.975 28.5873C263.975 28.5859 263.975 28.5844 263.975 28.5829C263.975 28.5814 263.975 28.5799 263.975 28.5784C263.975 28.5769 263.975 28.5755 263.975 28.574C263.975 28.5725 263.975 28.571 263.975 28.5695C263.975 28.568 263.975 28.5665 263.975 28.5651C263.975 28.5636 263.975 28.5621 263.975 28.5606C263.975 28.5591 263.975 28.5577 263.975 28.5562C263.975 28.5547 263.975 28.5532 263.975 28.5517C263.975 28.5503 263.975 28.5488 263.975 28.5473C263.975 28.5458 263.975 28.5443 263.975 28.5429C263.975 28.5414 263.975 28.5399 263.975 28.5384C263.975 28.537 263.975 28.5355 263.975 28.534C263.975 28.5325 263.975 28.5311 263.975 28.5296C263.975 28.5281 263.975 28.5266 263.975 28.5252C263.975 28.5237 263.975 28.5222 263.975 28.5207C263.975 28.5193 263.975 28.5178 263.975 28.5163C263.975 28.5149 263.975 28.5134 263.975 28.5119C263.975 28.5104 263.975 28.509 263.975 28.5075C263.975 28.506 263.975 28.5046 263.975 28.5031C263.975 28.5016 263.975 28.5002 263.975 28.4987C263.975 28.4972 263.975 28.4958 263.975 28.4943C263.975 28.4928 263.975 28.4914 263.975 28.4899C263.975 28.4884 263.975 28.487 263.975 28.4855C263.975 28.4841 263.975 28.4826 263.975 28.4811C263.975 28.4797 263.975 28.4782 263.975 28.4767C263.975 28.4753 263.975 28.4738 263.975 28.4724C263.975 28.4709 263.975 28.4694 263.975 28.468C263.975 28.4665 263.975 28.4651 263.975 28.4636C263.975 28.4622 263.975 28.4607 263.975 28.4592C263.975 28.4578 263.975 28.4563 263.975 28.4549C263.975 28.4534 263.975 28.452 263.975 28.4505C263.975 28.4491 263.975 28.4476 263.975 28.4462C263.975 28.4447 263.975 28.4432 263.975 28.4418C263.975 28.4403 263.975 28.4389 263.975 28.4374C263.975 28.436 263.975 28.4345 263.975 28.4331C263.975 28.4316 263.975 28.4302 263.975 28.4287C263.975 28.4273 263.975 28.4258 263.975 28.4244C263.975 28.4229 263.975 28.4215 263.975 28.4201C263.975 28.4186 263.975 28.4172 263.975 28.4157C263.975 28.4143 263.975 28.4128 263.975 28.4114C263.975 28.4099 263.975 28.4085 263.975 28.407C263.975 28.4056 263.975 28.4042 263.975 28.4027C263.975 28.4013 263.975 28.3998 263.975 28.3984C263.975 28.397 263.975 28.3955 263.975 28.3941C263.975 28.3926 263.975 28.3912 263.975 28.3898C263.975 28.3883 263.975 28.3869 263.975 28.3854C263.975 28.384 263.975 28.3826 263.975 28.3811C263.975 28.3797 263.975 28.3783 263.975 28.3768C263.975 28.3754 263.975 28.3739 263.975 28.3725C263.975 28.3711 263.975 28.3696 263.975 28.3682C263.975 28.3668 263.975 28.3653 263.975 28.3639C263.975 28.3625 263.975 28.361 263.975 28.3596C263.975 28.3582 263.975 28.3568 263.975 28.3553C263.975 28.3539 263.975 28.3525 263.975 28.351C263.975 28.3496 263.975 28.3482 263.975 28.3467C263.975 28.3453 263.975 28.3439 263.975 28.3425C263.975 28.341 263.975 28.3396 263.975 28.3382C263.975 28.3368 263.975 28.3353 263.975 28.3339C263.975 28.3325 263.975 28.3311 263.975 28.3296C263.975 28.3282 263.975 28.3268 263.975 28.3254C263.975 28.3239 263.975 28.3225 263.975 28.3211C263.975 28.3197 263.975 28.3183 263.975 28.3168C263.975 28.3154 263.975 28.314 263.975 28.3126C263.975 28.3112 263.975 28.3097 263.975 28.3083C263.975 28.3069 263.975 28.3055 263.975 28.3041C263.975 28.3027 263.975 28.3012 263.975 28.2998C263.975 28.2984 263.975 28.297 263.975 28.2956C263.975 28.2942 263.975 28.2927 263.975 28.2913C263.975 28.2899 263.975 28.2885 263.975 28.2871C263.975 28.2857 263.975 28.2843 263.975 28.2829C263.975 28.2814 263.975 28.28 263.975 28.2786C263.975 28.2772 263.975 28.2758 263.975 28.2744C263.975 28.273 263.975 28.2716 263.975 28.2702C263.975 28.2688 263.975 28.2674 263.975 28.2659C263.975 28.2645 263.975 28.2631 263.975 28.2617C263.975 28.2603 263.975 28.2589 263.975 28.2575C263.975 28.2561 263.975 28.2547 263.975 28.2533C263.975 28.2519 263.975 28.2505 263.975 28.2491C263.975 28.2477 263.975 28.2463 263.975 28.2449C263.975 28.2435 263.975 28.2421 263.975 28.2407C263.975 28.2393 263.975 28.2379 263.975 28.2365C263.975 28.2351 263.975 28.2337 263.975 28.2323C263.975 28.2309 263.975 28.2295 263.975 28.2281C263.975 28.2267 263.975 28.2253 263.975 28.2239C263.975 28.2225 263.975 28.2211 263.975 28.2197C263.975 28.2183 263.975 28.2169 263.975 28.2155C263.975 28.2141 263.975 28.2127 263.975 28.2113C263.975 28.21 263.975 28.2086 263.975 28.2072C263.975 28.2058 263.975 28.2044 263.975 28.203C263.975 28.2016 263.975 28.2002 263.975 28.1988C263.975 28.1974 263.975 28.1961 263.975 28.1947C263.975 28.1933 263.975 28.1919 263.975 28.1905C263.975 28.1891 263.975 28.1877 263.975 28.1863C263.975 28.185 263.975 28.1836 263.975 28.1822C263.975 28.1808 263.975 28.1794 263.975 28.178C263.975 28.1766 263.975 28.1753 263.975 28.1739C263.975 28.1725 263.975 28.1711 263.975 28.1697C263.975 28.1683 263.975 28.167 263.975 28.1656C263.975 28.1642 263.975 28.1628 263.975 28.1614C263.975 28.1601 263.975 28.1587 263.975 28.1573C263.975 28.1559 263.975 28.1546 263.975 28.1532C263.975 28.1518 263.975 28.1504 263.975 28.149C263.975 28.1477 263.975 28.1463 263.975 28.1449C263.975 28.1435 263.975 28.1422 263.975 28.1408C263.975 28.1394 263.975 28.138 263.975 28.1367C263.975 28.1353 263.975 28.1339 263.975 28.1326C263.975 28.1312 263.975 28.1298 263.975 28.1284C263.975 28.1271 263.975 28.1257 263.975 28.1243C263.975 28.123 263.975 28.1216 263.975 28.1202C263.975 28.1189 263.975 28.1175 263.975 28.1161C263.975 28.1147 263.975 28.1134 263.975 28.112C263.975 28.1106 263.975 28.1093 263.975 28.1079C263.975 28.1066 263.975 28.1052 263.975 28.1038C263.975 28.1025 263.975 28.1011 263.975 28.0997C263.975 28.0984 263.975 28.097 263.975 28.0956C263.975 28.0943 263.975 28.0929 263.975 28.0916C263.975 28.0902 263.975 28.0888 263.975 28.0875C263.975 28.0861 263.975 28.0848 263.975 28.0834C263.975 28.082 263.975 28.0807 263.975 28.0793C263.975 28.078 263.975 28.0766 263.975 28.0753C263.975 28.0739 263.975 28.0725 263.975 28.0712C263.975 28.0698 263.975 28.0685 263.975 28.0671C263.975 28.0658 263.975 28.0644 263.975 28.0631C263.975 28.0617 263.975 28.0604 263.975 28.059C263.975 28.0576 263.975 28.0563 263.975 28.0549C263.975 28.0536 263.975 28.0522 263.975 28.0509C263.975 28.0495 263.975 28.0482 263.975 28.0468C263.975 28.0455 263.975 28.0441 263.975 28.0428C263.975 28.0415 263.975 28.0401 263.975 28.0388C263.975 28.0374 263.975 28.0361 263.975 28.0347C263.975 28.0334 263.975 28.032 263.975 28.0307C263.975 28.0293 263.975 28.028 263.975 28.0267C263.975 28.0253 263.975 28.024 263.975 28.0226C263.975 28.0213 263.975 28.0199 263.975 28.0186C263.975 28.0173 263.975 28.0159 263.975 28.0146C263.975 28.0132 263.975 28.0119 263.975 28.0106C263.975 28.0092 263.975 28.0079 263.975 28.0065C263.975 28.0052 263.975 28.0039 263.975 28.0025C263.975 28.0012 263.975 27.9999 263.975 27.9985C263.975 27.9972 263.975 27.9959 263.975 27.9945C263.975 27.9932 263.975 27.9919 263.975 27.9905C263.975 27.9892 263.975 27.9879 263.975 27.9865C263.975 27.9852 263.975 27.9839 263.975 27.9825C263.975 27.9812 263.975 27.9799 263.975 27.9785C263.975 27.9772 263.975 27.9759 263.975 27.9745C263.975 27.9732 263.975 27.9719 263.975 27.9706C263.975 27.9692 263.975 27.9679 263.975 27.9666C263.975 27.9652 263.975 27.9639 263.975 27.9626C263.975 27.9613 263.975 27.9599 263.975 27.9586C263.975 27.9573 263.975 27.956 263.975 27.9546C263.975 27.9533 263.975 27.952 263.975 27.9507C263.975 27.9494 263.975 27.948 263.975 27.9467C263.975 27.9454 263.975 27.9441 263.975 27.9427C263.975 27.9414 263.975 27.9401 263.975 27.9388C263.975 27.9375 263.975 27.9362 263.975 27.9348C263.975 27.9335 263.975 27.9322 263.975 27.9309C263.975 27.9296 263.975 27.9282 263.975 27.9269C263.975 27.9256 263.975 27.9243 263.975 27.923C263.975 27.9217 263.975 27.9204 263.975 27.919C263.975 27.9177 263.975 27.9164 263.975 27.9151C263.975 27.9138 263.975 27.9125 263.975 27.9112C263.975 27.9099 263.975 27.9085 263.975 27.9072C263.975 27.9059 263.975 27.9046 263.975 27.9033C263.975 27.902 263.975 27.9007 263.975 27.8994C263.975 27.8981 263.975 27.8968 263.975 27.8955C263.975 27.8941 263.975 27.8928 263.975 27.8915C263.975 27.8902 263.975 27.8889 263.975 27.8876C263.975 27.8863 263.975 27.885 263.975 27.8837C263.975 27.8824 263.975 27.8811 263.975 27.8798C263.975 27.8785 263.975 27.8772 263.975 27.8759C263.975 27.8746 263.975 27.8733 263.975 27.872C263.975 27.8707 263.975 27.8694 263.975 27.8681C263.975 27.8668 263.975 27.8655 263.975 27.8642C263.975 27.8629 263.975 27.8616 263.975 27.8603C263.975 27.859 263.975 27.8577 263.975 27.8564C263.975 27.8551 263.975 27.8538 263.975 27.8525C263.975 27.8512 263.975 27.8499 263.975 27.8486C263.975 27.8473 263.975 27.846 263.975 27.8448C263.975 27.8435 263.975 27.8422 263.975 27.8409C263.975 27.8396 263.975 27.8383 263.975 27.837C263.975 27.8357 263.975 27.8344 263.975 27.8331C263.975 27.8318 263.975 27.8306 263.975 27.8293C263.975 27.828 263.975 27.8267 263.975 27.8254C263.975 27.8241 263.975 27.8228 263.975 27.8215C263.975 27.8203 263.975 27.819 263.975 27.8177C263.975 27.8164 263.975 27.8151 263.975 27.8138C263.975 27.8125 263.975 27.8113 263.975 27.81C263.975 27.8087 263.975 27.8074 263.975 27.8061C263.975 27.8049 263.975 27.8036 263.975 27.8023C263.975 27.801 263.975 27.7997 263.975 27.7984C263.975 27.7972 263.975 27.7959 263.975 27.7946C263.975 27.7933 263.975 27.7921 263.975 27.7908C263.975 27.7895 263.975 27.7882 263.975 27.7869C263.975 27.7857 263.975 27.7844 263.975 27.7831C263.975 27.7818 263.975 27.7806 263.975 27.7793C263.975 27.778 263.975 27.7767 263.975 27.7755C263.975 27.7742 263.975 27.7729 263.975 27.7717C263.975 27.7704 263.975 27.7691 263.975 27.7678C263.975 27.7666 263.975 27.7653 263.975 27.764C263.975 27.7628 263.975 27.7615 263.975 27.7602C263.975 27.759 263.975 27.7577 263.975 27.7564C263.975 27.7552 263.975 27.7539 263.975 27.7526C263.975 27.7514 263.975 27.7501 263.975 27.7488C263.975 27.7476 263.975 27.7463 263.975 27.745C263.975 27.7438 263.975 27.7425 263.975 27.7412C263.975 27.74 263.975 27.7387 263.975 27.7374C263.975 27.7362 263.975 27.7349 263.975 27.7337C263.975 27.7324 263.975 27.7311 263.975 27.7299C263.975 27.7286 263.975 27.7274 263.975 27.7261C263.975 27.7248 263.975 27.7236 263.975 27.7223C263.975 27.7211 263.975 27.7198 263.975 27.7186C263.975 27.7173 263.975 27.716 263.975 27.7148C263.975 27.7135 263.975 27.7123 263.975 27.711C263.975 27.7098 263.975 27.7085 263.975 27.7073C263.975 27.706 263.975 27.7048 263.975 27.7035C263.975 27.7023 263.975 27.701 263.975 27.6997C263.975 27.6985 263.975 27.6972 263.975 27.696H261.975C261.975 27.6972 261.975 27.6985 261.975 27.6997C261.975 27.701 261.975 27.7023 261.975 27.7035C261.975 27.7048 261.975 27.706 261.975 27.7073C261.975 27.7085 261.975 27.7098 261.975 27.711C261.975 27.7123 261.975 27.7135 261.975 27.7148C261.975 27.716 261.975 27.7173 261.975 27.7186C261.975 27.7198 261.975 27.7211 261.975 27.7223C261.975 27.7236 261.975 27.7248 261.975 27.7261C261.975 27.7274 261.975 27.7286 261.975 27.7299C261.975 27.7311 261.975 27.7324 261.975 27.7337C261.975 27.7349 261.975 27.7362 261.975 27.7374C261.975 27.7387 261.975 27.74 261.975 27.7412C261.975 27.7425 261.975 27.7438 261.975 27.745C261.975 27.7463 261.975 27.7476 261.975 27.7488C261.975 27.7501 261.975 27.7514 261.975 27.7526C261.975 27.7539 261.975 27.7552 261.975 27.7564C261.975 27.7577 261.975 27.759 261.975 27.7602C261.975 27.7615 261.975 27.7628 261.975 27.764C261.975 27.7653 261.975 27.7666 261.975 27.7678C261.975 27.7691 261.975 27.7704 261.975 27.7717C261.975 27.7729 261.975 27.7742 261.975 27.7755C261.975 27.7767 261.975 27.778 261.975 27.7793C261.975 27.7806 261.975 27.7818 261.975 27.7831C261.975 27.7844 261.975 27.7857 261.975 27.7869C261.975 27.7882 261.975 27.7895 261.975 27.7908C261.975 27.7921 261.975 27.7933 261.975 27.7946C261.975 27.7959 261.975 27.7972 261.975 27.7984C261.975 27.7997 261.975 27.801 261.975 27.8023C261.975 27.8036 261.975 27.8049 261.975 27.8061C261.975 27.8074 261.975 27.8087 261.975 27.81C261.975 27.8113 261.975 27.8125 261.975 27.8138C261.975 27.8151 261.975 27.8164 261.975 27.8177C261.975 27.819 261.975 27.8203 261.975 27.8215C261.975 27.8228 261.975 27.8241 261.975 27.8254C261.975 27.8267 261.975 27.828 261.975 27.8293C261.975 27.8306 261.975 27.8318 261.975 27.8331C261.975 27.8344 261.975 27.8357 261.975 27.837C261.975 27.8383 261.975 27.8396 261.975 27.8409C261.975 27.8422 261.975 27.8435 261.975 27.8448C261.975 27.846 261.975 27.8473 261.975 27.8486C261.975 27.8499 261.975 27.8512 261.975 27.8525C261.975 27.8538 261.975 27.8551 261.975 27.8564C261.975 27.8577 261.975 27.859 261.975 27.8603C261.975 27.8616 261.975 27.8629 261.975 27.8642C261.975 27.8655 261.975 27.8668 261.975 27.8681C261.975 27.8694 261.975 27.8707 261.975 27.872C261.975 27.8733 261.975 27.8746 261.975 27.8759C261.975 27.8772 261.975 27.8785 261.975 27.8798C261.975 27.8811 261.975 27.8824 261.975 27.8837C261.975 27.885 261.975 27.8863 261.975 27.8876C261.975 27.8889 261.975 27.8902 261.975 27.8915C261.975 27.8928 261.975 27.8941 261.975 27.8955C261.975 27.8968 261.975 27.8981 261.975 27.8994C261.975 27.9007 261.975 27.902 261.975 27.9033C261.975 27.9046 261.975 27.9059 261.975 27.9072C261.975 27.9085 261.975 27.9099 261.975 27.9112C261.975 27.9125 261.975 27.9138 261.975 27.9151C261.975 27.9164 261.975 27.9177 261.975 27.919C261.975 27.9204 261.975 27.9217 261.975 27.923C261.975 27.9243 261.975 27.9256 261.975 27.9269C261.975 27.9282 261.975 27.9296 261.975 27.9309C261.975 27.9322 261.975 27.9335 261.975 27.9348C261.975 27.9362 261.975 27.9375 261.975 27.9388C261.975 27.9401 261.975 27.9414 261.975 27.9427C261.975 27.9441 261.975 27.9454 261.975 27.9467C261.975 27.948 261.975 27.9494 261.975 27.9507C261.975 27.952 261.975 27.9533 261.975 27.9546C261.975 27.956 261.975 27.9573 261.975 27.9586C261.975 27.9599 261.975 27.9613 261.975 27.9626C261.975 27.9639 261.975 27.9652 261.975 27.9666C261.975 27.9679 261.975 27.9692 261.975 27.9706C261.975 27.9719 261.975 27.9732 261.975 27.9745C261.975 27.9759 261.975 27.9772 261.975 27.9785C261.975 27.9799 261.975 27.9812 261.975 27.9825C261.975 27.9839 261.975 27.9852 261.975 27.9865C261.975 27.9879 261.975 27.9892 261.975 27.9905C261.975 27.9919 261.975 27.9932 261.975 27.9945C261.975 27.9959 261.975 27.9972 261.975 27.9985C261.975 27.9999 261.975 28.0012 261.975 28.0025C261.975 28.0039 261.975 28.0052 261.975 28.0065C261.975 28.0079 261.975 28.0092 261.975 28.0106C261.975 28.0119 261.975 28.0132 261.975 28.0146C261.975 28.0159 261.975 28.0173 261.975 28.0186C261.975 28.0199 261.975 28.0213 261.975 28.0226C261.975 28.024 261.975 28.0253 261.975 28.0267C261.975 28.028 261.975 28.0293 261.975 28.0307C261.975 28.032 261.975 28.0334 261.975 28.0347C261.975 28.0361 261.975 28.0374 261.975 28.0388C261.975 28.0401 261.975 28.0415 261.975 28.0428C261.975 28.0441 261.975 28.0455 261.975 28.0468C261.975 28.0482 261.975 28.0495 261.975 28.0509C261.975 28.0522 261.975 28.0536 261.975 28.0549C261.975 28.0563 261.975 28.0576 261.975 28.059C261.975 28.0604 261.975 28.0617 261.975 28.0631C261.975 28.0644 261.975 28.0658 261.975 28.0671C261.975 28.0685 261.975 28.0698 261.975 28.0712C261.975 28.0725 261.975 28.0739 261.975 28.0753C261.975 28.0766 261.975 28.078 261.975 28.0793C261.975 28.0807 261.975 28.082 261.975 28.0834C261.975 28.0848 261.975 28.0861 261.975 28.0875C261.975 28.0888 261.975 28.0902 261.975 28.0916C261.975 28.0929 261.975 28.0943 261.975 28.0956C261.975 28.097 261.975 28.0984 261.975 28.0997C261.975 28.1011 261.975 28.1025 261.975 28.1038C261.975 28.1052 261.975 28.1066 261.975 28.1079C261.975 28.1093 261.975 28.1106 261.975 28.112C261.975 28.1134 261.975 28.1147 261.975 28.1161C261.975 28.1175 261.975 28.1189 261.975 28.1202C261.975 28.1216 261.975 28.123 261.975 28.1243C261.975 28.1257 261.975 28.1271 261.975 28.1284C261.975 28.1298 261.975 28.1312 261.975 28.1326C261.975 28.1339 261.975 28.1353 261.975 28.1367C261.975 28.138 261.975 28.1394 261.975 28.1408C261.975 28.1422 261.975 28.1435 261.975 28.1449C261.975 28.1463 261.975 28.1477 261.975 28.149C261.975 28.1504 261.975 28.1518 261.975 28.1532C261.975 28.1546 261.975 28.1559 261.975 28.1573C261.975 28.1587 261.975 28.1601 261.975 28.1614C261.975 28.1628 261.975 28.1642 261.975 28.1656C261.975 28.167 261.975 28.1683 261.975 28.1697C261.975 28.1711 261.975 28.1725 261.975 28.1739C261.975 28.1753 261.975 28.1766 261.975 28.178C261.975 28.1794 261.975 28.1808 261.975 28.1822C261.975 28.1836 261.975 28.185 261.975 28.1863C261.975 28.1877 261.975 28.1891 261.975 28.1905C261.975 28.1919 261.975 28.1933 261.975 28.1947C261.975 28.1961 261.975 28.1974 261.975 28.1988C261.975 28.2002 261.975 28.2016 261.975 28.203C261.975 28.2044 261.975 28.2058 261.975 28.2072C261.975 28.2086 261.975 28.21 261.975 28.2113C261.975 28.2127 261.975 28.2141 261.975 28.2155C261.975 28.2169 261.975 28.2183 261.975 28.2197C261.975 28.2211 261.975 28.2225 261.975 28.2239C261.975 28.2253 261.975 28.2267 261.975 28.2281C261.975 28.2295 261.975 28.2309 261.975 28.2323C261.975 28.2337 261.975 28.2351 261.975 28.2365C261.975 28.2379 261.975 28.2393 261.975 28.2407C261.975 28.2421 261.975 28.2435 261.975 28.2449C261.975 28.2463 261.975 28.2477 261.975 28.2491C261.975 28.2505 261.975 28.2519 261.975 28.2533C261.975 28.2547 261.975 28.2561 261.975 28.2575C261.975 28.2589 261.975 28.2603 261.975 28.2617C261.975 28.2631 261.975 28.2645 261.975 28.2659C261.975 28.2674 261.975 28.2688 261.975 28.2702C261.975 28.2716 261.975 28.273 261.975 28.2744C261.975 28.2758 261.975 28.2772 261.975 28.2786C261.975 28.28 261.975 28.2814 261.975 28.2829C261.975 28.2843 261.975 28.2857 261.975 28.2871C261.975 28.2885 261.975 28.2899 261.975 28.2913C261.975 28.2927 261.975 28.2942 261.975 28.2956C261.975 28.297 261.975 28.2984 261.975 28.2998C261.975 28.3012 261.975 28.3027 261.975 28.3041C261.975 28.3055 261.975 28.3069 261.975 28.3083C261.975 28.3097 261.975 28.3112 261.975 28.3126C261.975 28.314 261.975 28.3154 261.975 28.3168C261.975 28.3183 261.975 28.3197 261.975 28.3211C261.975 28.3225 261.975 28.3239 261.975 28.3254C261.975 28.3268 261.975 28.3282 261.975 28.3296C261.975 28.3311 261.975 28.3325 261.975 28.3339C261.975 28.3353 261.975 28.3368 261.975 28.3382C261.975 28.3396 261.975 28.341 261.975 28.3425C261.975 28.3439 261.975 28.3453 261.975 28.3467C261.975 28.3482 261.975 28.3496 261.975 28.351C261.975 28.3525 261.975 28.3539 261.975 28.3553C261.975 28.3568 261.975 28.3582 261.975 28.3596C261.975 28.361 261.975 28.3625 261.975 28.3639C261.975 28.3653 261.975 28.3668 261.975 28.3682C261.975 28.3696 261.975 28.3711 261.975 28.3725C261.975 28.3739 261.975 28.3754 261.975 28.3768C261.975 28.3783 261.975 28.3797 261.975 28.3811C261.975 28.3826 261.975 28.384 261.975 28.3854C261.975 28.3869 261.975 28.3883 261.975 28.3898C261.975 28.3912 261.975 28.3926 261.975 28.3941C261.975 28.3955 261.975 28.397 261.975 28.3984C261.975 28.3998 261.975 28.4013 261.975 28.4027C261.975 28.4042 261.975 28.4056 261.975 28.407C261.975 28.4085 261.975 28.4099 261.975 28.4114C261.975 28.4128 261.975 28.4143 261.975 28.4157C261.975 28.4172 261.975 28.4186 261.975 28.4201C261.975 28.4215 261.975 28.4229 261.975 28.4244C261.975 28.4258 261.975 28.4273 261.975 28.4287C261.975 28.4302 261.975 28.4316 261.975 28.4331C261.975 28.4345 261.975 28.436 261.975 28.4374C261.975 28.4389 261.975 28.4403 261.975 28.4418C261.975 28.4432 261.975 28.4447 261.975 28.4462C261.975 28.4476 261.975 28.4491 261.975 28.4505C261.975 28.452 261.975 28.4534 261.975 28.4549C261.975 28.4563 261.975 28.4578 261.975 28.4592C261.975 28.4607 261.975 28.4622 261.975 28.4636C261.975 28.4651 261.975 28.4665 261.975 28.468C261.975 28.4694 261.975 28.4709 261.975 28.4724C261.975 28.4738 261.975 28.4753 261.975 28.4767C261.975 28.4782 261.975 28.4797 261.975 28.4811C261.975 28.4826 261.975 28.4841 261.975 28.4855C261.975 28.487 261.975 28.4884 261.975 28.4899C261.975 28.4914 261.975 28.4928 261.975 28.4943C261.975 28.4958 261.975 28.4972 261.975 28.4987C261.975 28.5002 261.975 28.5016 261.975 28.5031C261.975 28.5046 261.975 28.506 261.975 28.5075C261.975 28.509 261.975 28.5104 261.975 28.5119C261.975 28.5134 261.975 28.5149 261.975 28.5163C261.975 28.5178 261.975 28.5193 261.975 28.5207C261.975 28.5222 261.975 28.5237 261.975 28.5252C261.975 28.5266 261.975 28.5281 261.975 28.5296C261.975 28.5311 261.975 28.5325 261.975 28.534C261.975 28.5355 261.975 28.537 261.975 28.5384C261.975 28.5399 261.975 28.5414 261.975 28.5429C261.975 28.5443 261.975 28.5458 261.975 28.5473C261.975 28.5488 261.975 28.5503 261.975 28.5517C261.975 28.5532 261.975 28.5547 261.975 28.5562C261.975 28.5577 261.975 28.5591 261.975 28.5606C261.975 28.5621 261.975 28.5636 261.975 28.5651C261.975 28.5665 261.975 28.568 261.975 28.5695C261.975 28.571 261.975 28.5725 261.975 28.574C261.975 28.5755 261.975 28.5769 261.975 28.5784C261.975 28.5799 261.975 28.5814 261.975 28.5829C261.975 28.5844 261.975 28.5859 261.975 28.5873C261.975 28.5888 261.975 28.5903 261.975 28.5918C261.975 28.5933 261.975 28.5948 261.975 28.5963C261.975 28.5978 261.975 28.5993 261.975 28.6008C261.975 28.6023 261.975 28.6037 261.975 28.6052C261.975 28.6067 261.975 28.6082 261.975 28.6097C261.975 28.6112 261.975 28.6127 261.975 28.6142C261.975 28.6157 261.975 28.6172 261.975 28.6187C261.975 28.6202 261.975 28.6217 261.975 28.6232C261.975 28.6247 261.975 28.6262 261.975 28.6277C261.975 28.6292 261.975 28.6307 261.975 28.6322C261.975 28.6337 261.975 28.6352 261.975 28.6367C261.975 28.6382 261.975 28.6397 261.975 28.6412C261.975 28.6427 261.975 28.6442 261.975 28.6457C261.975 28.6472 261.975 28.6487 261.975 28.6502C261.975 28.6517 261.975 28.6532 261.975 28.6547C261.975 28.6562 261.975 28.6577 261.975 28.6592C261.975 28.6607 261.975 28.6622 261.975 28.6637C261.975 28.6652 261.975 28.6667 261.975 28.6683C261.975 28.6698 261.975 28.6713 261.975 28.6728C261.975 28.6743 261.975 28.6758 261.975 28.6773C261.975 28.6788 261.975 28.6803 261.975 28.6818C261.975 28.6834 261.975 28.6849 261.975 28.6864C261.975 28.6879 261.975 28.6894 261.975 28.6909C261.975 28.6924 261.975 28.6939 261.975 28.6955C261.975 28.697 261.975 28.6985 261.975 28.7C261.975 28.7015 261.975 28.703 261.975 28.7046C261.975 28.7061 261.975 28.7076 261.975 28.7091C261.975 28.7106 261.975 28.7121 261.975 28.7137C261.975 28.7152 261.975 28.7167 261.975 28.7182C261.975 28.7197 261.975 28.7213 261.975 28.7228C261.975 28.7243 261.975 28.7258 261.975 28.7274C261.975 28.7289 261.975 28.7304 261.975 28.7319C261.975 28.7334 261.975 28.735 261.975 28.7365C261.975 28.738 261.975 28.7395 261.975 28.7411C261.975 28.7426 261.975 28.7441 261.975 28.7457C261.975 28.7472 261.975 28.7487 261.975 28.7502C261.975 28.7518 261.975 28.7533 261.975 28.7548C261.975 28.7563 261.975 28.7579 261.975 28.7594C261.975 28.7609 261.975 28.7625 261.975 28.764C261.975 28.7655 261.975 28.7671 261.975 28.7686C261.975 28.7701 261.975 28.7717 261.975 28.7732C261.975 28.7747 261.975 28.7763 261.975 28.7778C261.975 28.7793 261.975 28.7809 261.975 28.7824C261.975 28.7839 261.975 28.7855 261.975 28.787C261.975 28.7885 261.975 28.7901 261.975 28.7916C261.975 28.7932 261.975 28.7947 261.975 28.7962C261.975 28.7978 261.975 28.7993 261.975 28.8009C261.975 28.8024 261.975 28.8039 261.975 28.8055C261.975 28.807 261.975 28.8086 261.975 28.8101C261.975 28.8116 261.975 28.8132 261.975 28.8147C261.975 28.8163 261.975 28.8178 261.975 28.8194C261.975 28.8209 261.975 28.8225 261.975 28.824C261.975 28.8255 261.975 28.8271 261.975 28.8286C261.975 28.8302 261.975 28.8317 261.975 28.8333C261.975 28.8348 261.975 28.8364 261.975 28.8379C261.975 28.8395 261.975 28.841 261.975 28.8426C261.975 28.8441 261.975 28.8457 261.975 28.8472C261.975 28.8488 261.975 28.8503 261.975 28.8519C261.975 28.8534 261.975 28.855 261.975 28.8565C261.975 28.8581 261.975 28.8596 261.975 28.8612C261.975 28.8627 261.975 28.8643 261.975 28.8659C261.975 28.8674 261.975 28.869 261.975 28.8705C261.975 28.8721 261.975 28.8736 261.975 28.8752C261.975 28.8768 261.975 28.8783 261.975 28.8799C261.975 28.8814 261.975 28.883 261.975 28.8846C261.975 28.8861 261.975 28.8877 261.975 28.8892C261.975 28.8908 261.975 28.8924 261.975 28.8939C261.975 28.8955 261.975 28.897 261.975 28.8986C261.975 28.9002 261.975 28.9017 261.975 28.9033C261.975 28.9049 261.975 28.9064 261.975 28.908C261.975 28.9096 261.975 28.9111 261.975 28.9127C261.975 28.9143 261.975 28.9158 261.975 28.9174C261.975 28.919 261.975 28.9205 261.975 28.9221C261.975 28.9237 261.975 28.9252 261.975 28.9268C261.975 28.9284 261.975 28.9299 261.975 28.9315C261.975 28.9331 261.975 28.9347 261.975 28.9362C261.975 28.9378 261.975 28.9394 261.975 28.9409C261.975 28.9425 261.975 28.9441 261.975 28.9457C261.975 28.9472 261.975 28.9488 261.975 28.9504C261.975 28.952 261.975 28.9535 261.975 28.9551C261.975 28.9567 261.975 28.9583 261.975 28.9598C261.975 28.9614 261.975 28.963 261.975 28.9646C261.975 28.9662 261.975 28.9677 261.975 28.9693C261.975 28.9709 261.975 28.9725 261.975 28.9741C261.975 28.9756 261.975 28.9772 261.975 28.9788C261.975 28.9804 261.975 28.982 261.975 28.9835C261.975 28.9851 261.975 28.9867 261.975 28.9883C261.975 28.9899 261.975 28.9915 261.975 28.9931C261.975 28.9946 261.975 28.9962 261.975 28.9978C261.975 28.9994 261.975 29.001 261.975 29.0026C261.975 29.0042 261.975 29.0057 261.975 29.0073C261.975 29.0089 261.975 29.0105 261.975 29.0121C261.975 29.0137 261.975 29.0153 261.975 29.0169C261.975 29.0185 261.975 29.02 261.975 29.0216C261.975 29.0232 261.975 29.0248 261.975 29.0264C261.975 29.028 261.975 29.0296 261.975 29.0312C261.975 29.0328 261.975 29.0344 261.975 29.036C261.975 29.0376 261.975 29.0392 261.975 29.0408C261.975 29.0424 261.975 29.044 261.975 29.0456C261.975 29.0472 261.975 29.0488 261.975 29.0504C261.975 29.0519 261.975 29.0535 261.975 29.0551C261.975 29.0567 261.975 29.0583 261.975 29.0599C261.975 29.0615 261.975 29.0631 261.975 29.0647C261.975 29.0664 261.975 29.068 261.975 29.0696C261.975 29.0712 261.975 29.0728 261.975 29.0744C261.975 29.076 261.975 29.0776 261.975 29.0792C261.975 29.0808 261.975 29.0824 261.975 29.084C261.975 29.0856 261.975 29.0872 261.975 29.0888C261.975 29.0904 261.975 29.092 261.975 29.0936C261.975 29.0952 261.975 29.0969 261.975 29.0985C261.975 29.1001 261.975 29.1017 261.975 29.1033C261.975 29.1049 261.975 29.1065 261.975 29.1081C261.975 29.1097 261.975 29.1113 261.975 29.113C261.975 29.1146 261.975 29.1162 261.975 29.1178C261.975 29.1194 261.975 29.121 261.975 29.1226C261.975 29.1243 261.975 29.1259 261.975 29.1275C261.975 29.1291 261.975 29.1307 261.975 29.1323C261.975 29.134 261.975 29.1356 261.975 29.1372C261.975 29.1388 261.975 29.1404 261.975 29.142C261.975 29.1437 261.975 29.1453 261.975 29.1469C261.975 29.1485 261.975 29.1501 261.975 29.1518C261.975 29.1534 261.975 29.155 261.975 29.1566C261.975 29.1583 261.975 29.1599 261.975 29.1615C261.975 29.1631 261.975 29.1648 261.975 29.1664C261.975 29.168 261.975 29.1696 261.975 29.1713C261.975 29.1729 261.975 29.1745 261.975 29.1761C261.975 29.1778 261.975 29.1794 261.975 29.181C261.975 29.1826 261.975 29.1843 261.975 29.1859C261.975 29.1875 261.975 29.1892 261.975 29.1908C261.975 29.1924 261.975 29.194 261.975 29.1957C261.975 29.1973 261.975 29.1989 261.975 29.2006C261.975 29.2022 261.975 29.2038 261.975 29.2055C261.975 29.2071 261.975 29.2087 261.975 29.2104C261.975 29.212 261.975 29.2136 261.975 29.2153C261.975 29.2169 261.975 29.2186 261.975 29.2202C261.975 29.2218 261.975 29.2235 261.975 29.2251C261.975 29.2267 261.975 29.2284 261.975 29.23C261.975 29.2317 261.975 29.2333 261.975 29.2349C261.975 29.2366 261.975 29.2382 261.975 29.2399C261.975 29.2415 261.975 29.2431 261.975 29.2448C261.975 29.2464 261.975 29.2481 261.975 29.2497C261.975 29.2514 261.975 29.253 261.975 29.2546C261.975 29.2563 261.975 29.2579 261.975 29.2596C261.975 29.2612 261.975 29.2629 261.975 29.2645C261.975 29.2662 261.975 29.2678 261.975 29.2695C261.975 29.2711 261.975 29.2727 261.975 29.2744C261.975 29.276 261.975 29.2777 261.975 29.2793C261.975 29.281 261.975 29.2826 261.975 29.2843C261.975 29.2859 261.975 29.2876 261.975 29.2893C261.975 29.2909 261.975 29.2926 261.975 29.2942C261.975 29.2959 261.975 29.2975 261.975 29.2992C261.975 29.3008 261.975 29.3025 261.975 29.3041C261.975 29.3058 261.975 29.3074 261.975 29.3091C261.975 29.3108 261.975 29.3124 261.975 29.3141C261.975 29.3157 261.975 29.3174 261.975 29.319C261.975 29.3207 261.975 29.3224 261.975 29.324C261.975 29.3257 261.975 29.3273 261.975 29.329C261.975 29.3307 261.975 29.3323 261.975 29.334C261.975 29.3357 261.975 29.3373 261.975 29.339C261.975 29.3406 261.975 29.3423 261.975 29.344C261.975 29.3456 261.975 29.3473 261.975 29.349C261.975 29.3506 261.975 29.3523 261.975 29.354C261.975 29.3556 261.975 29.3573 261.975 29.359C261.975 29.3606 261.975 29.3623 261.975 29.364C261.975 29.3656 261.975 29.3673 261.975 29.369C261.975 29.3706 261.975 29.3723 261.975 29.374C261.975 29.3757 261.975 29.3773 261.975 29.379C261.975 29.3807 261.975 29.3823 261.975 29.384C261.975 29.3857 261.975 29.3874 261.975 29.389C261.975 29.3907 261.975 29.3924 261.975 29.3941C261.975 29.3957 261.975 29.3974 261.975 29.3991C261.975 29.4008 261.975 29.4024 261.975 29.4041C261.975 29.4058 261.975 29.4075 261.975 29.4092C261.975 29.4108 261.975 29.4125 261.975 29.4142C261.975 29.4159 261.975 29.4175 261.975 29.4192C261.975 29.4209 261.975 29.4226 261.975 29.4243C261.975 29.426 261.975 29.4276 261.975 29.4293C261.975 29.431 261.975 29.4327 261.975 29.4344C261.975 29.4361 261.975 29.4377 261.975 29.4394C261.975 29.4411 261.975 29.4428 261.975 29.4445C261.975 29.4462 261.975 29.4479 261.975 29.4495C261.975 29.4512 261.975 29.4529 261.975 29.4546C261.975 29.4563 261.975 29.458 261.975 29.4597C261.975 29.4614 261.975 29.4631 261.975 29.4647C261.975 29.4664 261.975 29.4681 261.975 29.4698C261.975 29.4715 261.975 29.4732 261.975 29.4749C261.975 29.4766 261.975 29.4783 261.975 29.48C261.975 29.4817 261.975 29.4834 261.975 29.4851C261.975 29.4867 261.975 29.4884 261.975 29.4901C261.975 29.4918 261.975 29.4935 261.975 29.4952C261.975 29.4969 261.975 29.4986 261.975 29.5003C261.975 29.502 261.975 29.5037 261.975 29.5054C261.975 29.5071 261.975 29.5088 261.975 29.5105C261.975 29.5122 261.975 29.5139 261.975 29.5156C261.975 29.5173 261.975 29.519 261.975 29.5207C261.975 29.5224 261.975 29.5241 261.975 29.5258C261.975 29.5275 261.975 29.5292 261.975 29.531C261.975 29.5327 261.975 29.5344 261.975 29.5361C261.975 29.5378 261.975 29.5395 261.975 29.5412C261.975 29.5429 261.975 29.5446 261.975 29.5463C261.975 29.548 261.975 29.5497 261.975 29.5514C261.975 29.5531 261.975 29.5549 261.975 29.5566C261.975 29.5583 261.975 29.56 261.975 29.5617C261.975 29.5634 261.975 29.5651 261.975 29.5668C261.975 29.5685 261.975 29.5703 261.975 29.572C261.975 29.5737 261.975 29.5754 261.975 29.5771C261.975 29.5788 261.975 29.5805 261.975 29.5823C261.975 29.584 261.975 29.5857 261.975 29.5874C261.975 29.5891 261.975 29.5908 261.975 29.5926C261.975 29.5943 261.975 29.596 261.975 29.5977C261.975 29.5994 261.975 29.6012 261.975 29.6029C261.975 29.6046 261.975 29.6063 261.975 29.608C261.975 29.6098 261.975 29.6115 261.975 29.6132C261.975 29.6149 261.975 29.6167 261.975 29.6184C261.975 29.6201 261.975 29.6218 261.975 29.6235C261.975 29.6253 261.975 29.627 261.975 29.6287C261.975 29.6304 261.975 29.6322 261.975 29.6339C261.975 29.6356 261.975 29.6374 261.975 29.6391C261.975 29.6408 261.975 29.6425 261.975 29.6443C261.975 29.646 261.975 29.6477 261.975 29.6495C261.975 29.6512 261.975 29.6529 261.975 29.6546C261.975 29.6564 261.975 29.6581 261.975 29.6598C261.975 29.6616 261.975 29.6633 261.975 29.665C261.975 29.6668 261.975 29.6685 261.975 29.6702C261.975 29.672 261.975 29.6737 261.975 29.6754C261.975 29.6772 261.975 29.6789 261.975 29.6807C261.975 29.6824 261.975 29.6841 261.975 29.6859C261.975 29.6876 261.975 29.6893 261.975 29.6911C261.975 29.6928 261.975 29.6946 261.975 29.6963C261.975 29.698 261.975 29.6998 261.975 29.7015C261.975 29.7033 261.975 29.705 261.975 29.7067C261.975 29.7085 261.975 29.7102 261.975 29.712C261.975 29.7137 261.975 29.7155 261.975 29.7172C261.975 29.719 261.975 29.7207 261.975 29.7224C261.975 29.7242 261.975 29.7259 261.975 29.7277C261.975 29.7294 261.975 29.7312 261.975 29.7329C261.975 29.7347 261.975 29.7364 261.975 29.7382C261.975 29.7399 261.975 29.7417 261.975 29.7434C261.975 29.7452 261.975 29.7469 261.975 29.7487C261.975 29.7504 261.975 29.7522 261.975 29.7539C261.975 29.7557 261.975 29.7574 261.975 29.7592C261.975 29.7609 261.975 29.7627 261.975 29.7644C261.975 29.7662 261.975 29.768 261.975 29.7697C261.975 29.7715 261.975 29.7732 261.975 29.775C261.975 29.7767 261.975 29.7785 261.975 29.7802C261.975 29.782 261.975 29.7838 261.975 29.7855C261.975 29.7873 261.975 29.789 261.975 29.7908C261.975 29.7926 261.975 29.7943 261.975 29.7961C261.975 29.7978 261.975 29.7996 261.975 29.8014C261.975 29.8031 261.975 29.8049 261.975 29.8066C261.975 29.8084 261.975 29.8102 261.975 29.8119C261.975 29.8137 261.975 29.8155 261.975 29.8172C261.975 29.819 261.975 29.8208 261.975 29.8225C261.975 29.8243 261.975 29.8261 261.975 29.8278C261.975 29.8296 261.975 29.8314 261.975 29.8331C261.975 29.8349 261.975 29.8367 261.975 29.8384C261.975 29.8402 261.975 29.842 261.975 29.8438C261.975 29.8455 261.975 29.8473 261.975 29.8491C261.975 29.8508 261.975 29.8526 261.975 29.8544C261.975 29.8562 261.975 29.8579 261.975 29.8597C261.975 29.8615 261.975 29.8633 261.975 29.865C261.975 29.8668 261.975 29.8686 261.975 29.8704C261.975 29.8721 261.975 29.8739 261.975 29.8757C261.975 29.8775 261.975 29.8792 261.975 29.881C261.975 29.8828 261.975 29.8846 261.975 29.8864C261.975 29.8881 261.975 29.8899 261.975 29.8917C261.975 29.8935 261.975 29.8953 261.975 29.897C261.975 29.8988 261.975 29.9006 261.975 29.9024C261.975 29.9042 261.975 29.906 261.975 29.9077C261.975 29.9095 261.975 29.9113 261.975 29.9131C261.975 29.9149 261.975 29.9167 261.975 29.9184C261.975 29.9202 261.975 29.922 261.975 29.9238C261.975 29.9256 261.975 29.9274 261.975 29.9292C261.975 29.931 261.975 29.9327 261.975 29.9345C261.975 29.9363 261.975 29.9381 261.975 29.9399C261.975 29.9417 261.975 29.9435 261.975 29.9453C261.975 29.9471 261.975 29.9489 261.975 29.9507C261.975 29.9525 261.975 29.9542 261.975 29.956C261.975 29.9578 261.975 29.9596 261.975 29.9614C261.975 29.9632 261.975 29.965 261.975 29.9668C261.975 29.9686 261.975 29.9704 261.975 29.9722C261.975 29.974 261.975 29.9758 261.975 29.9776C261.975 29.9794 261.975 29.9812 261.975 29.983C261.975 29.9848 261.975 29.9866 261.975 29.9884C261.975 29.9902 261.975 29.992 261.975 29.9938C261.975 29.9956 261.975 29.9974 261.975 29.9992C261.975 30.001 261.975 30.0028 261.975 30.0046C261.975 30.0064 261.975 30.0082 261.975 30.01C261.975 30.0118 261.975 30.0136 261.975 30.0154C261.975 30.0172 261.975 30.019 261.975 30.0209C261.975 30.0227 261.975 30.0245 261.975 30.0263C261.975 30.0281 261.975 30.0299 261.975 30.0317C261.975 30.0335 261.975 30.0353 261.975 30.0371C261.975 30.0389 261.975 30.0408 261.975 30.0426C261.975 30.0444 261.975 30.0462 261.975 30.048H263.975ZM263.973 27.7459C264.005 27.1084 264.037 26.5193 264.069 25.9787L262.072 25.8613C262.04 26.4087 262.008 27.0036 261.976 27.6461L263.973 27.7459ZM264.069 25.9755C264.101 25.3984 264.133 24.8055 264.165 24.1966L262.168 24.0914C262.136 24.6985 262.104 25.2896 262.072 25.8645L264.069 25.9755ZM262.459 23.4369C261.961 23.9352 261.518 24.3472 261.129 24.6766L262.42 26.2034C262.863 25.8288 263.348 25.3768 263.874 24.8511L262.459 23.4369ZM261.129 24.6766C260.712 25.0293 260.183 25.4778 259.543 26.0221L260.838 27.5459C261.478 27.0022 262.005 26.5547 262.42 26.2034L261.129 24.6766ZM259.558 26.0091L255.91 28.9851L257.175 30.5349L260.823 27.5589L259.558 26.0091ZM257.331 29.1451L255.123 26.3131L253.546 27.5429L255.754 30.3749L257.331 29.1451ZM254.948 27.7176L264.212 20.5176L262.985 18.9384L253.721 26.1384L254.948 27.7176ZM263.599 20.728H267.103V18.728H263.599V20.728ZM266.103 19.728V54H268.103V19.728H266.103Z" fill="#2E3641"/>
</svg>
